<svg width="179" height="72" viewBox="0 0 179 72" fill="none" xmlns="http://www.w3.org/2000/svg">
<path fill-rule="evenodd" clip-rule="evenodd" d="M115.021 6.64447C115.021 6.85492 115.021 7.06505 115.021 7.2755C114.435 7.733 114.125 8.36403 114.088 9.16859C113.847 10.843 113.743 12.5257 113.777 14.2168C113.777 14.4273 113.777 14.6374 113.777 14.8479C112.593 17.7361 111.972 20.7858 111.912 23.9978C111.912 24.3133 111.912 24.6288 111.912 24.9443C111.199 26.3566 110.577 27.8291 110.047 29.3615C109.772 32.6277 109.462 35.888 109.114 39.1425C108.6 41.8606 108.186 44.5952 107.871 47.3459C107.138 47.3973 106.413 47.3449 105.695 47.1881C104.064 45.9958 102.406 44.8915 100.721 43.8752C99.9637 42.7378 99.0311 41.7385 97.9232 40.8778C97.3099 40.7216 96.6881 40.6689 96.058 40.7201C94.6146 39.488 93.0087 38.5414 91.2396 37.8804C90.8768 37.9331 90.5143 37.9855 90.1516 38.0382C89.2267 39.2403 88.0868 40.1345 86.732 40.7201C85.5691 40.4358 84.9473 40.8564 84.8668 41.9821C84.556 41.9821 84.2451 41.9821 83.9342 41.9821C84.0023 41.6114 83.8988 41.2959 83.6234 41.0356C81.65 40.5027 81.1318 39.346 82.069 37.5649C82.2608 37.5299 82.4163 37.4248 82.5353 37.2494C82.7756 34.5382 83.3458 31.9087 84.2451 29.3615C90.8268 23.0493 97.3549 16.6864 103.83 10.2729C103.519 10.0624 103.208 10.0624 102.897 10.2729C97.8725 13.5678 92.7948 16.7756 87.6646 19.8961C86.5007 20.0942 85.3608 20.4097 84.2451 20.8426C83.915 21.3228 83.7076 21.8485 83.6234 22.4202C82.6628 23.139 81.6267 23.77 80.5147 24.3133C79.5597 24.2133 78.6271 24.3183 77.7169 24.6288C78.1689 26.6462 78.117 28.6444 77.5615 30.6236C76.8766 29.9392 76.6177 29.0981 76.7843 28.0995C75.9552 27.6789 75.1265 27.258 74.2974 26.8374C74.09 26.8374 73.883 26.8374 73.6757 26.8374C72.1506 25.9915 70.9071 25.045 69.9453 23.9978C68.6222 23.7271 67.3788 23.2538 66.2149 22.578C65.6015 22.4218 64.9798 22.3691 64.3497 22.4202C63.566 21.9375 63.2551 21.2011 63.4171 20.2116C65.3703 19.4269 67.339 18.6908 69.3235 18.003C71.3286 17.879 73.1938 17.3004 74.9191 16.2677C75.6444 16.1626 76.3699 16.0572 77.0952 15.9522C78.4055 14.6756 79.9082 14.0969 81.6027 14.2168C82.794 13.4571 83.882 12.6159 84.8668 11.6927C85.1777 11.6927 85.4886 11.6927 85.7994 11.6927C86.5321 11.7441 87.2574 11.6918 87.9755 11.5349C87.872 11.4299 87.7681 11.3245 87.6646 11.2194C89.4226 10.6436 91.1842 10.0653 92.9493 9.4841C93.3786 9.04838 93.7933 8.62748 94.1928 8.22204C95.3977 7.66926 96.6412 7.14362 97.9232 6.64447C99.7281 6.17467 101.593 5.91153 103.519 5.85568C103.208 5.75062 102.897 5.64524 102.586 5.54017C104.717 3.82061 107.101 3.24228 109.736 3.80484C110.047 3.64708 110.358 3.48932 110.669 3.33157C110.565 3.2265 110.461 3.12112 110.358 3.01605C110.653 2.86366 110.963 2.81128 111.29 2.85829C111.19 4.13771 111.293 5.39977 111.601 6.64447C111.911 4.97477 112.014 3.29213 111.912 1.59624C112.996 1.13779 114.136 0.92766 115.332 0.965206C115.176 2.76332 114.968 4.55103 114.71 6.32896C114.748 6.52047 114.852 6.62554 115.021 6.64447Z" fill="#CEB261"/>
<path fill-rule="evenodd" clip-rule="evenodd" d="M115.02 6.64491C114.851 6.62598 114.748 6.52092 114.709 6.3294C114.967 4.55147 115.175 2.76376 115.331 0.965645C114.135 0.928099 112.995 1.13823 111.911 1.59667C112.013 3.29257 111.91 4.97521 111.6 6.64491C111.292 5.40021 111.189 4.13815 111.29 2.85873C110.963 2.81172 110.652 2.8641 110.357 3.01649C110.461 3.12156 110.564 3.22694 110.668 3.33201C110.357 3.48976 110.046 3.64752 109.735 3.80528C107.1 3.24272 104.717 3.82105 102.585 5.54061C102.896 5.64568 103.207 5.75106 103.518 5.85613C101.592 5.91197 99.7272 6.17511 97.9224 6.64491C103.067 4.36342 108.351 2.2072 113.777 0.176858C114.495 0.020047 115.22 -0.0323285 115.953 0.0191004C116.017 2.29743 115.706 4.50604 115.02 6.64491Z" fill="#CEB261"/>
<path fill-rule="evenodd" clip-rule="evenodd" d="M94.1917 8.22266C93.7922 8.62809 93.3776 9.04899 92.9482 9.48471C91.1832 10.0659 89.4215 10.6442 87.6635 11.22C87.7671 11.3251 87.8709 11.4305 87.9744 11.5356C87.2563 11.6924 86.5311 11.7447 85.7983 11.6933C88.3841 10.1495 91.1819 8.99283 94.1917 8.22266Z" fill="#CEB261"/>
<path fill-rule="evenodd" clip-rule="evenodd" d="M115.021 7.27637C114.793 9.66418 114.378 11.9782 113.777 14.2177C113.743 12.5265 113.847 10.8439 114.088 9.16946C114.125 8.36489 114.435 7.73386 115.021 7.27637Z" fill="#CEB261"/>
<path fill-rule="evenodd" clip-rule="evenodd" d="M84.8665 11.6924C83.8817 12.6156 82.7937 13.4567 81.6024 14.2165C79.9079 14.0966 78.4052 14.6753 77.0949 15.9518C76.3696 16.0569 75.6441 16.1623 74.9188 16.2673C73.1935 17.3 71.3283 17.8787 69.3232 18.0027C74.5657 16.0452 79.7469 13.9417 84.8665 11.6924Z" fill="#CEB261"/>
<path opacity="0.89" fill-rule="evenodd" clip-rule="evenodd" d="M113.777 14.8486C113.034 17.912 112.413 20.962 111.912 23.9986C111.971 20.7866 112.593 17.7369 113.777 14.8486Z" fill="#CEB261"/>
<path fill-rule="evenodd" clip-rule="evenodd" d="M87.6641 19.8965C86.2882 20.6493 84.9409 21.4908 83.6228 22.4206C83.707 21.8489 83.9144 21.3232 84.2445 20.843C85.3602 20.4101 86.5002 20.0946 87.6641 19.8965Z" fill="#CEB261"/>
<path fill-rule="evenodd" clip-rule="evenodd" d="M64.3489 22.4202C64.979 22.3691 65.6007 22.4218 66.2141 22.578C67.378 23.2538 68.6214 23.7271 69.9445 23.9978C70.9063 25.045 72.1497 25.9916 73.6748 26.8375C70.5074 25.4192 67.3988 23.9467 64.3489 22.4202Z" fill="#CEB261"/>
<path fill-rule="evenodd" clip-rule="evenodd" d="M111.912 24.9443C111.17 29.7648 110.237 34.4975 109.115 39.1425C109.462 35.888 109.773 32.6278 110.047 29.3615C110.577 27.8291 111.199 26.3566 111.912 24.9443Z" fill="#CEB261"/>
<path fill-rule="evenodd" clip-rule="evenodd" d="M79.8921 31.2551C79.7846 32.2338 79.9919 33.1276 80.5138 33.9369C79.7494 34.8384 79.5421 35.8373 79.8921 36.9343C80.1809 36.5592 80.2844 36.1386 80.203 35.6723C80.5138 35.6723 80.8247 35.6723 81.1356 35.6723C80.8567 37.1362 80.8048 38.6084 80.9801 40.0895C81.3889 40.6624 81.8552 41.1884 82.379 41.667C81.4996 42.3186 80.7224 42.1081 80.0476 41.036C79.8931 40.3072 79.8414 39.5711 79.8921 38.8274C79.5813 38.8274 79.2704 38.8274 78.9595 38.8274C78.7152 36.6286 78.3008 34.4724 77.7161 32.3594C78.5057 32.0312 79.0239 31.4526 79.2704 30.624C79.4824 30.8585 79.6897 31.0686 79.8921 31.2551Z" fill="#CEB261"/>
<path fill-rule="evenodd" clip-rule="evenodd" d="M80.5142 24.3139C79.7408 24.8677 79.0152 25.4987 78.3381 26.207C78.9819 27.8521 79.5001 29.5347 79.8925 31.2552C79.6901 31.0688 79.4827 30.8586 79.2707 30.6242C79.0242 31.4528 78.506 32.0314 77.7164 32.3595C78.3011 34.4726 78.7155 36.6288 78.9599 38.8276C77.7385 35.3711 76.5988 31.8481 75.5403 28.2579C75.1661 27.7218 74.7514 27.2485 74.2969 26.838C75.126 27.2586 75.9547 27.6795 76.7838 28.1001C76.6172 29.0987 76.8761 29.9399 77.561 30.6242C78.1165 28.645 78.1684 26.6468 77.7164 24.6294C78.6266 24.319 79.5592 24.2139 80.5142 24.3139Z" fill="#CEB261"/>
<path fill-rule="evenodd" clip-rule="evenodd" d="M68.0795 36.3033C68.0795 35.8827 68.0795 35.4618 68.0795 35.0413C69.1542 34.8961 69.6721 34.2651 69.6338 33.1482C68.8787 33.2693 68.1532 33.4798 67.4578 33.7792C68.0242 33.0463 68.6459 32.3628 69.323 31.7283C70.7147 31.6763 71.181 32.36 70.7219 33.7792C69.7796 34.5784 68.8989 35.4199 68.0795 36.3033Z" fill="#CEB261"/>
<path fill-rule="evenodd" clip-rule="evenodd" d="M68.0791 36.3036C67.043 36.9346 66.0066 37.5656 64.9705 38.1967C64.9705 38.6173 64.9705 39.0382 64.9705 39.4587C64.217 39.5559 63.4917 39.4505 62.7944 39.1432C62.9893 38.8539 63.0932 38.5384 63.1053 38.1967C64.3957 36.5885 65.8462 35.1163 67.4574 33.7795C68.1528 33.48 68.8784 33.2696 69.6335 33.1484C69.6717 34.2654 69.1538 34.8964 68.0791 35.0415C68.0791 35.4621 68.0791 35.883 68.0791 36.3036Z" fill="#CEB261"/>
<path fill-rule="evenodd" clip-rule="evenodd" d="M68.0791 36.3037C67.043 37.3553 66.0066 38.4073 64.9705 39.4589C64.9705 39.0383 64.9705 38.6174 64.9705 38.1968C66.0066 37.5658 67.043 36.9347 68.0791 36.3037Z" fill="#CEB261"/>
<path fill-rule="evenodd" clip-rule="evenodd" d="M79.8921 31.2549C80.6089 33.3313 81.3345 35.4348 82.0681 37.5652C81.1309 39.3463 81.6491 40.5029 83.6225 41.0358C83.8979 41.2961 84.0014 41.6117 83.9333 41.9824C84.2442 41.9824 84.555 41.9824 84.8659 41.9824C84.9464 40.8566 85.5682 40.436 86.7311 40.7203C85.4522 41.8448 84.1049 42.8964 82.6899 43.8755C82.0358 43.9698 81.4141 43.8647 80.8247 43.56C80.5837 42.9617 80.2729 42.4358 79.8921 41.9824C79.5843 40.9604 79.2734 39.9088 78.9595 38.8272C79.2703 38.8272 79.5812 38.8272 79.8921 38.8272C79.8414 39.5709 79.893 40.307 80.0475 41.0358C80.7224 42.108 81.4996 42.3184 82.379 41.6669C81.8552 41.1882 81.3889 40.6623 80.9801 40.0893C80.8048 38.6083 80.8567 37.1361 81.1355 35.6721C80.8247 35.6721 80.5138 35.6721 80.2029 35.6721C80.2844 36.1384 80.1809 36.559 79.8921 36.9341C79.542 35.8371 79.7494 34.8382 80.5138 33.9368C79.9919 33.1275 79.7845 32.2336 79.8921 31.2549Z" fill="#CEB261"/>
<path fill-rule="evenodd" clip-rule="evenodd" d="M63.1059 38.1963C63.0937 38.538 62.9899 38.8535 62.795 39.1428C63.4923 39.4501 64.2175 39.5555 64.9711 39.4584C63.9822 40.8062 63.1531 40.7008 62.4841 39.1428C62.4695 38.6576 62.6769 38.3421 63.1059 38.1963Z" fill="#CEB261"/>
<path fill-rule="evenodd" clip-rule="evenodd" d="M96.0574 40.7201C96.6875 40.6689 97.3092 40.7216 97.9226 40.8778C99.0305 41.7385 99.9631 42.7378 100.72 43.8752C99.2005 42.7384 97.6462 41.6868 96.0574 40.7201Z" fill="#CEB261"/>
<path opacity="0.733" fill-rule="evenodd" clip-rule="evenodd" d="M79.8921 41.9834C80.2729 42.4368 80.5838 42.9628 80.8247 43.561C81.4141 43.8658 82.0358 43.9708 82.6899 43.8765C80.9475 44.5656 80.0149 43.9345 79.8921 41.9834Z" fill="#CEB261"/>
<path fill-rule="evenodd" clip-rule="evenodd" d="M73.9858 45.7696C74.7829 45.3794 75.4046 45.6422 75.851 46.5584C75.7024 47.0765 75.3916 47.4447 74.9184 47.6627C75.4326 46.6029 75.1217 45.9719 73.9858 45.7696Z" fill="#CEB261"/>
<path fill-rule="evenodd" clip-rule="evenodd" d="M73.9861 45.7686C75.122 45.9708 75.4329 46.6018 74.9187 47.6616C73.157 49.6598 71.2918 51.5529 69.3231 53.3409C68.8049 53.3409 68.287 53.3409 67.7688 53.3409C67.7688 52.9203 67.7688 52.4994 67.7688 52.0789C67.9202 51.7719 68.0756 51.4563 68.2351 51.1323C70.1516 49.3474 72.0687 47.5597 73.9861 45.7686Z" fill="#CEB261"/>
<path fill-rule="evenodd" clip-rule="evenodd" d="M92.0158 45.4534C93.3053 45.4386 93.7716 46.0696 93.4147 47.3465C91.3773 49.4144 89.3567 51.4652 87.3528 53.499C85.9228 53.9985 85.3527 53.5252 85.6431 52.0792C87.6133 49.7116 89.7375 47.503 92.0158 45.4534Z" fill="#CEB261"/>
<path opacity="0.914" fill-rule="evenodd" clip-rule="evenodd" d="M67.7683 52.0791C67.7683 52.4997 67.7683 52.9206 67.7683 53.3412C68.2866 53.3412 68.8045 53.3412 69.3227 53.3412C68.774 53.6444 68.1523 53.7498 67.4575 53.6567C67.3692 53.0525 67.4727 52.5268 67.7683 52.0791Z" fill="#CEB261"/>
<path fill-rule="evenodd" clip-rule="evenodd" d="M68.08 58.3895C67.6656 58.3895 67.2509 58.3895 66.8365 58.3895C63.6812 58.2295 60.5726 58.44 57.5106 59.0205C57.7471 60.7514 57.3327 62.2239 56.2671 63.4377C56.5528 62.4378 56.8636 61.4386 57.1997 60.4403C56.8789 59.7408 56.8789 59.0574 57.1997 58.3895C60.8763 57.9717 64.5029 57.9717 68.08 58.3895Z" fill="#CEB261"/>
<path fill-rule="evenodd" clip-rule="evenodd" d="M126.834 62.1755C126.18 62.2699 125.558 62.1648 124.969 61.86C124.766 61.116 124.351 60.5901 123.725 60.2825C123.423 59.8751 123.112 59.8751 122.793 60.2825C121.778 62.9523 120.949 65.6866 120.306 68.4858C119.715 69.381 119.507 70.4329 119.684 71.641C118.959 71.641 118.233 71.641 117.508 71.641C117.72 71.1122 118.135 70.9017 118.752 71.01C118.788 70.384 118.581 69.8583 118.13 69.4324C119.128 69.0897 119.439 68.4587 119.062 67.5393C119.223 66.995 119.43 66.4691 119.684 65.9617C119.899 66.1274 120.055 66.3378 120.15 66.5927C120.254 65.7513 120.358 64.9101 120.461 64.0686C121.261 62.9186 121.676 61.6565 121.705 60.2825C121.601 60.3875 121.497 60.4929 121.394 60.598C119.835 59.4495 118.229 59.3441 116.576 60.2825C115.633 60.7608 114.804 61.3918 114.089 62.1755C113.467 62.1755 112.845 62.1755 112.223 62.1755C112.223 61.86 112.223 61.5445 112.223 61.229C112.252 60.0673 112.666 59.068 113.467 58.2316C118.133 57.9688 122.796 58.0215 127.456 58.3894C127.843 59.7398 127.636 61.0018 126.834 62.1755Z" fill="#CEB261"/>
<path fill-rule="evenodd" clip-rule="evenodd" d="M157.61 64.7002C157.163 64.3137 156.645 63.9982 156.055 63.7537C156.962 62.0442 157.169 60.2565 156.677 58.3899C157.543 58.0817 158.476 57.9766 159.475 58.0744C158.842 60.3111 158.221 62.5197 157.61 64.7002Z" fill="#CEB261"/>
<path fill-rule="evenodd" clip-rule="evenodd" d="M151.391 59.0202C150.028 58.9174 148.681 59.0228 147.35 59.3358C147.707 60.0012 148.122 60.6322 148.593 61.2289C147.466 61.5895 147.415 62.0101 148.438 62.4909C148.567 62.3467 148.722 62.2413 148.904 62.1754C149.17 62.6323 149.481 63.0528 149.837 63.4375C149.629 63.5425 149.422 63.6479 149.215 63.753C149.511 64.3698 149.926 64.8958 150.459 65.3305C150.674 65.1649 150.829 64.9545 150.925 64.6995C150.998 65.5539 151.257 66.3427 151.702 67.0659C151.159 68.0197 151.314 68.8085 152.168 69.4322C152.321 69.1013 152.27 68.7857 152.013 68.4857C152.12 68.1083 152.276 68.1083 152.479 68.4857C152.371 69.36 152.423 70.2015 152.635 71.0098C153.732 71.171 154.716 70.9606 155.588 70.3788C156.161 68.7356 156.368 67.0526 156.21 65.3305C155.903 65.1188 155.54 65.1188 155.121 65.3305C156.052 63.0345 156.57 60.7206 156.676 58.3892C157.168 60.2558 156.961 62.0435 156.054 63.753C156.643 63.9975 157.162 64.313 157.608 64.6995C157.146 66.4822 156.68 68.2699 156.21 70.0633C155.256 72.1349 153.909 72.4505 152.168 71.0098C151.01 68.5545 149.767 66.1354 148.438 63.753C147.484 66.1859 146.811 68.71 146.417 71.3253C145.467 71.8898 144.431 72.1002 143.309 71.9564C145.122 67.7521 146.262 63.3349 146.728 58.7047C147.505 58.3491 148.333 58.1387 149.215 58.0737C150.144 57.9768 150.869 58.2924 151.391 59.0202Z" fill="#CEB261"/>
<path opacity="0.865" fill-rule="evenodd" clip-rule="evenodd" d="M123.724 60.2832C124.35 60.5908 124.764 61.1168 124.967 61.8608C125.557 62.1656 126.178 62.2706 126.833 62.1763C126.151 62.5855 125.425 62.5855 124.656 62.1763C124.342 61.5367 124.031 60.9057 123.724 60.2832Z" fill="#CEB261"/>
<path fill-rule="evenodd" clip-rule="evenodd" d="M66.8355 58.3887C67.2499 58.3887 67.6646 58.3887 68.079 58.3887C68.3559 58.6288 68.5633 58.9443 68.7007 59.3352C68.5086 60.3805 68.1977 61.3794 67.7681 62.3326C67.1218 62.5875 66.5001 62.5349 65.9029 62.1748C65.6359 60.1423 64.4962 59.4062 62.4834 59.9662C63.4741 59.5542 64.5102 59.5542 65.592 59.9662C66.1121 60.6045 66.3195 61.3406 66.2138 62.1748C66.5246 62.1748 66.8355 62.1748 67.1464 62.1748C67.1684 61.2879 67.3758 60.4465 67.7681 59.6507C67.6789 59.0377 67.368 58.6168 66.8355 58.3887Z" fill="#CEB261"/>
<path fill-rule="evenodd" clip-rule="evenodd" d="M104.451 58.3894C104.788 58.4017 105.098 58.5071 105.384 58.7049C105.785 59.6233 106.095 60.5699 106.316 61.5445C105.541 64.7959 104.816 68.0561 104.14 71.3255C103.217 71.7161 102.233 71.9265 101.187 71.9565C100.306 71.9038 99.4252 71.8514 98.5445 71.7987C98.4024 71.6681 98.2986 71.5104 98.2336 71.3255C98.9971 70.4827 99.5153 69.5362 99.788 68.4858C100.49 68.3991 100.594 68.0836 100.099 67.5393C99.6845 67.3288 99.2698 67.1187 98.8554 66.9083C99.6593 66.5991 100.488 66.494 101.342 66.5928C101.398 65.2067 101.606 63.8396 101.964 62.4911C101.947 61.8159 101.739 61.2902 101.342 60.9135C101.342 60.8084 101.342 60.703 101.342 60.598C101.323 59.9379 101.012 59.4646 100.41 59.1782C100.552 59.0475 100.656 58.8898 100.721 58.7049C101.947 58.3922 103.19 58.2871 104.451 58.3894Z" fill="#CEB261"/>
<path opacity="0.804" fill-rule="evenodd" clip-rule="evenodd" d="M169.422 58.3892C171.474 57.8601 173.442 58.1756 175.328 59.3358C175.971 58.9881 176.592 58.6202 177.193 58.2315C178.32 57.9671 178.839 58.4403 178.748 59.6513C178.491 60.5947 178.232 61.5412 177.97 62.4909C177.093 63.3008 176.316 63.1958 175.639 62.1754C176.364 62.1754 177.09 62.1754 177.815 62.1754C178.022 61.1238 178.229 60.0719 178.437 59.0203C177.424 59.0641 176.44 59.2746 175.484 59.6513C173.544 58.8054 171.523 58.3848 169.422 58.3892Z" fill="#CEB261"/>
<path fill-rule="evenodd" clip-rule="evenodd" d="M78.3375 66.9077C77.7717 68.4587 77.5644 70.0363 77.7158 71.6404C75.7579 71.9546 73.7889 72.06 71.8093 71.9559C72.9151 68.3013 74.055 64.6202 75.2288 60.9129C75.4539 60.3708 75.6613 59.7922 75.8506 59.1776C77.3586 58.8829 78.8091 58.9879 80.2027 59.4931C79.6428 59.5931 79.5393 59.8035 79.8918 60.1241C79.4824 61.3518 79.1716 62.6138 78.9592 63.9103C79.3332 64.3419 79.6441 64.8152 79.8918 65.3301C78.9406 65.2408 78.4224 65.7665 78.3375 66.9077Z" fill="#CEB261"/>
<path opacity="0.867" fill-rule="evenodd" clip-rule="evenodd" d="M112.222 61.2285C112.222 61.544 112.222 61.8595 112.222 62.1751C112.844 62.1751 113.465 62.1751 114.087 62.1751C113.432 62.4805 112.707 62.5859 111.911 62.4906C111.828 61.9861 111.932 61.5655 112.222 61.2285Z" fill="#CEB261"/>
<path fill-rule="evenodd" clip-rule="evenodd" d="M117.507 71.6407C117.093 71.6407 116.678 71.6407 116.264 71.6407C116.298 70.5064 116.195 69.3494 115.953 68.17C116.612 65.6974 117.234 63.2259 117.818 60.7554C117.634 60.609 117.426 60.5564 117.197 60.5977C117.09 60.3333 116.883 60.2279 116.575 60.2822C118.228 59.3438 119.835 59.4492 121.393 60.5977C121.497 60.4926 121.601 60.3872 121.704 60.2822C121.675 61.6562 121.261 62.9183 120.461 64.0683C120.357 64.9098 120.253 65.751 120.15 66.5925C120.054 66.3375 119.899 66.1271 119.684 65.9614C119.429 66.4688 119.222 66.9947 119.062 67.539C119.438 68.4584 119.127 69.0894 118.129 69.4321C118.58 69.858 118.787 70.3837 118.751 71.0097C118.134 70.9015 117.72 71.1119 117.507 71.6407Z" fill="#CEB261"/>
<path fill-rule="evenodd" clip-rule="evenodd" d="M151.392 59.0205C152.635 61.1241 153.879 63.2273 155.122 65.3308C155.541 65.1191 155.903 65.1191 156.21 65.3308C156.369 67.0529 156.161 68.7359 155.588 70.3791C154.717 70.9609 153.732 71.1713 152.635 71.0101C152.424 70.2017 152.372 69.3603 152.48 68.486C152.276 68.1086 152.121 68.1086 152.013 68.486C152.27 68.786 152.322 69.1015 152.169 69.4325C151.314 68.8088 151.159 68.02 151.702 67.0662C151.258 66.343 150.999 65.5542 150.925 64.6998C150.83 64.9547 150.674 65.1652 150.459 65.3308C149.926 64.8961 149.512 64.3701 149.216 63.7533C149.423 63.6482 149.63 63.5428 149.837 63.4377C149.481 63.0531 149.17 62.6325 148.905 62.1757C148.723 62.2416 148.567 62.347 148.438 62.4912C147.415 62.0104 147.467 61.5898 148.594 61.2291C148.123 60.6325 147.708 60.0015 147.35 59.3361C148.682 59.0231 150.029 58.9177 151.392 59.0205Z" fill="#CEB261"/>
<path fill-rule="evenodd" clip-rule="evenodd" d="M30.1535 61.2286C30.178 60.7774 30.0745 60.3565 29.8426 59.9666C28.6162 59.6539 27.3728 59.5488 26.1122 59.651C26.1122 60.2821 26.1122 60.9131 26.1122 61.5441C26.1657 61.8571 26.0619 62.0673 25.8014 62.1752C25.5026 62.7321 25.3988 63.3631 25.4905 64.0683C26.6584 64.0007 26.8658 64.3163 26.1122 65.0148C25.6319 65.3152 25.1137 65.4202 24.5579 65.3303C24.5579 65.7509 24.5579 66.1718 24.5579 66.5924C24.3011 67.7396 24.0941 68.8966 23.9362 70.063C25.8884 70.4051 27.3392 69.7217 28.2883 68.0122C29.4152 67.2187 30.1407 67.4815 30.4643 68.801C30.5079 70.252 29.8861 71.1986 28.5991 71.6406C25.1734 71.7454 21.7539 71.6403 18.3406 71.3251C18.8305 70.5429 19.1414 69.7015 19.2732 68.801C19.8505 66.0487 20.5238 63.3142 21.2938 60.5976C21.4483 59.7627 21.5002 58.9213 21.4492 58.0735C24.9738 58.0208 28.4972 58.0735 32.0187 58.2312C32.5518 58.4764 32.8627 58.897 32.9513 59.4933C32.5714 60.3464 32.2605 61.2406 32.0187 62.1752C30.8862 62.7731 30.2645 62.4576 30.1535 61.2286Z" fill="#CEB261"/>
<path fill-rule="evenodd" clip-rule="evenodd" d="M30.1543 61.2287C29.3392 60.0745 28.1996 59.7066 26.7348 60.1244C26.5486 60.6361 26.3412 61.1094 26.113 61.5442C26.113 60.9131 26.113 60.2821 26.113 59.6511C27.3736 59.5489 28.6171 59.6539 29.8434 59.9666C30.0753 60.3566 30.1788 60.7775 30.1543 61.2287Z" fill="#CEB261"/>
<path fill-rule="evenodd" clip-rule="evenodd" d="M4.97414 60.2832C5.345 60.4315 5.55235 60.747 5.59587 61.2297C4.90668 64.0514 4.0776 66.8383 3.10894 69.5909C3.15402 69.8345 3.25754 70.0449 3.41981 70.2219C2.8761 70.4696 2.35789 70.7324 1.86548 71.0107C3.39494 67.6126 4.43105 64.0366 4.97414 60.2832Z" fill="#CEB261"/>
<path fill-rule="evenodd" clip-rule="evenodd" d="M135.848 71.6414C134.086 71.6414 132.325 71.6414 130.563 71.6414C130.563 71.3258 130.563 71.0103 130.563 70.6948C132.045 66.602 133.082 62.3949 133.672 58.0742C135.64 58.0742 137.609 58.0742 139.578 58.0742C138.085 62.5173 136.841 67.0396 135.848 71.6414Z" fill="#CEB261"/>
<path fill-rule="evenodd" clip-rule="evenodd" d="M44.7653 59.6518C44.165 59.8913 43.6987 60.3122 43.3664 60.9139C42.952 63.0174 42.5373 65.1207 42.1229 67.2242C41.8024 67.6028 41.5431 68.0237 41.3457 68.4863C41.5497 69.1025 41.6532 69.7335 41.6566 70.3793C42.9172 70.4816 44.1606 70.3765 45.387 70.0638C46 69.4596 46.3109 68.7232 46.3196 67.8552C46.9926 67.7341 47.5108 67.9445 47.8739 68.4863C47.5963 69.3015 47.4928 70.143 47.5631 71.0104C47.3557 71.2208 47.1487 71.431 46.9413 71.6414C43.196 71.8449 39.5692 71.6345 36.061 71.0104C37.0107 68.8901 37.7879 66.6815 38.3925 64.3846C38.8793 62.4539 39.2421 60.5608 39.4806 58.7053C39.7317 58.6081 39.9391 58.4504 40.1023 58.232C41.757 58.0746 43.4149 58.0219 45.0761 58.0743C45.1644 58.6785 45.0609 59.2041 44.7653 59.6518Z" fill="#CEB261"/>
<path fill-rule="evenodd" clip-rule="evenodd" d="M86.7311 63.4374C87.8011 60.2311 86.6612 58.7586 83.3116 59.0202C82.4825 59.1252 81.6537 59.2306 80.8247 59.3357C81.3942 59.5114 81.8086 59.8269 82.0681 60.2822C82.4949 60.2327 82.9096 60.2854 83.3116 60.44C83.0772 62.552 82.0408 64.0769 80.2029 65.0149C81.4396 66.1445 81.7504 67.5119 81.1355 69.1166C81.4361 69.8303 81.6435 70.5664 81.7573 71.3252C81.4284 70.9782 81.1691 70.5573 80.9801 70.0632C80.8766 68.8011 80.7727 67.5391 80.6692 66.277C79.6673 65.7532 78.8901 65.9634 78.3377 66.908C78.4226 65.7668 78.9408 65.2412 79.8921 65.3305C79.6443 64.8155 79.3334 64.3423 78.9595 63.9106C79.1718 62.6142 79.4827 61.3521 79.8921 60.1245C79.5395 59.8039 79.6431 59.5935 80.2029 59.4934C78.8093 58.9883 77.3588 58.8832 75.8508 59.1779C75.6615 59.7925 75.4541 60.3712 75.2291 60.9133C75.2857 60.2535 75.1818 59.6225 74.9182 59.0202C75.1256 58.8097 75.3326 58.5996 75.5399 58.3891C78.228 58.0216 80.9223 57.9689 83.6225 58.2314C85.6673 58.3336 87.0143 59.3325 87.6637 61.2288C87.5826 62.1097 87.2717 62.8458 86.7311 63.4374ZM82.0681 60.2822C82.2711 60.6946 82.4785 61.1152 82.6899 61.5443C82.2618 62.1087 81.9509 62.7398 81.7573 63.4374C81.1324 63.9646 80.4072 64.175 79.5812 64.0684C79.5476 62.8862 79.7031 61.7292 80.0475 60.5977C80.6201 59.8613 81.2938 59.7559 82.0681 60.2822Z" fill="#CEB261"/>
<path fill-rule="evenodd" clip-rule="evenodd" d="M62.1724 60.2832C61.9156 61.4304 61.7086 62.5874 61.5507 63.7539C62.6906 63.3333 63.8302 62.9124 64.9702 62.4918C64.9919 63.7302 64.7846 64.8869 64.3484 65.9625C64.2838 65.1989 64.3876 64.4628 64.6593 63.7539C64.452 63.6488 64.2449 63.5434 64.0376 63.4384C63.5514 63.8387 63.0332 64.2069 62.4832 64.5427C62.2495 64.7544 62.1456 65.0172 62.1724 65.3314C61.6753 65.2469 61.2609 65.3523 60.9289 65.647C60.4716 66.9718 60.0569 68.3392 59.6855 69.7486C59.4647 68.9936 59.2574 68.2048 59.0637 67.3823C59.7694 66.6333 60.1838 65.7394 60.3072 64.7004C60.7666 64.7831 61.181 64.678 61.5507 64.3849C60.9768 63.097 60.7694 61.7298 60.9289 60.2832C61.3433 60.2832 61.758 60.2832 62.1724 60.2832Z" fill="#CEB261"/>
<path fill-rule="evenodd" clip-rule="evenodd" d="M64.3489 65.9616C64.4023 66.2746 64.2985 66.4847 64.038 66.5926C63.5785 66.6753 63.1642 66.5702 62.7945 66.2771C62.6571 65.8862 62.4498 65.5707 62.1728 65.3306C62.1461 65.0163 62.2499 64.7535 62.4837 64.5418C63.0336 64.2061 63.5518 63.8379 64.038 63.4375C64.2454 63.5426 64.4524 63.6479 64.6597 63.753C64.388 64.462 64.2842 65.1981 64.3489 65.9616Z" fill="#CEB261"/>
<path fill-rule="evenodd" clip-rule="evenodd" d="M25.8013 62.1758C25.8013 62.7017 25.8013 63.2274 25.8013 63.7534C26.8738 63.3085 28.0134 63.0983 29.2209 63.1223C29.1279 64.3938 28.817 65.6032 28.2883 66.7507C28.0809 66.8034 27.8739 66.8558 27.6665 66.9085C27.129 66.3633 26.5073 65.9427 25.8013 65.6464C25.1973 65.737 24.7826 66.0525 24.5579 66.593C24.5579 66.1724 24.5579 65.7515 24.5579 65.3309C25.1137 65.4208 25.6319 65.3158 26.1122 65.0154C26.8657 64.3169 26.6584 64.0013 25.4905 64.0689C25.3988 63.3637 25.5026 62.7327 25.8013 62.1758Z" fill="#CEB261"/>
<path fill-rule="evenodd" clip-rule="evenodd" d="M1.86519 71.641C3.31973 71.6934 4.77023 71.6407 6.21731 71.4832C6.98452 70.6263 6.98452 69.7324 6.21731 68.8014C6.41253 68.2467 6.7234 67.7734 7.1499 67.3815C6.64195 67.2257 6.12374 67.1733 5.59558 67.2238C5.51071 66.6082 5.71775 66.1349 6.21731 65.804C5.80852 65.3638 5.91235 65.0483 6.52817 64.8574C5.65651 64.0368 5.76003 63.5635 6.83904 63.4376C6.83904 64.0686 6.83904 64.6997 6.83904 65.3307C7.1499 65.3307 7.46077 65.3307 7.77164 65.3307C7.94292 64.2873 8.04644 63.2357 8.0825 62.1755C8.44777 62.2446 8.75863 62.1396 9.0151 61.86C8.39337 61.6496 7.77164 61.4394 7.1499 61.229C6.72744 60.3014 7.0383 59.7757 8.0825 59.6514C8.59076 59.7707 9.05706 59.9808 9.48139 60.2825C9.89143 60.024 10.2539 59.7085 10.5694 59.3359C7.46761 59.0207 4.35895 58.9156 1.24346 59.0204C1.05539 61.6499 1.78064 61.913 3.41952 59.8092C4.11679 59.5577 4.53149 59.6104 4.66298 59.9669C4.33595 59.9199 4.02509 59.9723 3.73038 60.1247C3.10865 60.8608 2.48692 61.5972 1.86519 62.3333C0.714369 62.7728 0.0926379 62.4046 0 61.229C0.0217606 59.9449 0.539973 58.9459 1.55433 58.2316C6.01369 57.9688 10.4693 58.0215 14.9215 58.3894C15.206 58.6506 15.413 58.9661 15.5433 59.3359C15.2943 60.3039 14.9834 61.2505 14.6107 62.1755C14.0135 62.5355 13.3918 62.5882 12.7455 62.3333C12.3665 61.4076 11.7964 60.6188 11.0357 59.9669C10.6437 60.0487 10.3329 60.2591 10.1031 60.598C8.96474 64.2718 8.08405 67.9526 7.46077 71.641C5.5477 72.0565 3.68251 72.0565 1.86519 71.641Z" fill="#CEB261"/>
<path opacity="0.71" fill-rule="evenodd" clip-rule="evenodd" d="M60.9299 65.6465C61.2619 65.3518 61.6763 65.2464 62.1734 65.331C62.4504 65.5711 62.6577 65.8866 62.7951 66.2775C63.1647 66.5706 63.5791 66.6757 64.0386 66.593C63.853 66.7946 63.594 66.8997 63.2614 66.9085C62.5918 66.2813 61.8147 65.8604 60.9299 65.6465Z" fill="#CEB261"/>
<path opacity="0.984" fill-rule="evenodd" clip-rule="evenodd" d="M104.451 58.3898C103.191 58.2876 101.947 58.3927 100.721 58.7053C100.656 58.8902 100.552 59.048 100.41 59.1786C101.013 59.4651 101.323 59.9384 101.342 60.5984C100.552 60.4735 99.8779 60.6839 99.3218 61.2295C98.821 62.3656 98.1992 63.4176 97.4566 64.3846C97.3027 65.0071 97.2508 65.6381 97.3012 66.2777C98.4971 66.3152 99.637 66.1051 100.721 65.6467C101.05 64.3477 101.36 63.0329 101.653 61.7027C101.578 61.4181 101.474 61.1553 101.342 60.9139C101.739 61.2907 101.947 61.8163 101.964 62.4915C101.606 63.84 101.398 65.2071 101.342 66.5932C100.488 66.4944 99.6594 66.5995 98.8555 66.9087C99.2699 67.1192 99.6846 67.3293 100.099 67.5398C100.594 68.084 100.49 68.3995 99.7881 68.4863C99.8148 68.172 99.711 67.9092 99.4772 67.6975C97.0148 66.886 95.6679 67.7799 95.436 70.3794C95.436 70.8 95.436 71.2209 95.436 71.6414C94.296 71.6414 93.1564 71.6414 92.0164 71.6414C91.8308 71.5673 91.7273 71.4095 91.7056 71.1682C92.77 70.2185 93.6507 69.1142 94.3479 67.8553C95.4894 65.328 96.6294 62.8039 97.7675 60.2829C99.591 58.1399 101.819 57.5089 104.451 58.3898Z" fill="#CEB261"/>
<path fill-rule="evenodd" clip-rule="evenodd" d="M86.7318 63.437C85.4112 63.402 84.4786 63.9807 83.934 65.1724C84.0164 65.851 84.3272 66.377 84.8666 66.7499C84.5477 67.9319 84.755 69.0362 85.4883 70.0628C84.9005 70.3187 84.4861 70.7393 84.2449 71.3249C83.5476 71.6322 82.8223 71.7376 82.0688 71.6404C81.8615 71.6404 81.7579 71.5354 81.7579 71.3249C81.6442 70.5661 81.4368 69.83 81.1362 69.1163C81.7511 67.5116 81.4402 66.1441 80.2036 65.0146C82.0415 64.0766 83.0779 62.5517 83.3123 60.4396C82.9103 60.285 82.4956 60.2323 82.0688 60.2819C81.8092 59.8266 81.3949 59.5111 80.8253 59.3353C81.6544 59.2303 82.4832 59.1249 83.3123 59.0198C86.6619 58.7583 87.8018 60.2308 86.7318 63.437Z" fill="#CEB261"/>
<path opacity="0.8" fill-rule="evenodd" clip-rule="evenodd" d="M55.956 64.7002C56.0067 66.5968 55.5923 68.3845 54.7126 70.0639C54.5705 70.3157 54.3631 70.4208 54.0908 70.3795C54.9047 68.5252 55.5264 66.6321 55.956 64.7002Z" fill="#CEB261"/>
<path fill-rule="evenodd" clip-rule="evenodd" d="M66.8366 58.3887C67.3691 58.6168 67.6799 59.0377 67.7692 59.6508C67.3768 60.4465 67.1695 61.288 67.1474 62.1749C66.8366 62.1749 66.5257 62.1749 66.2148 62.1749C66.3205 61.3407 66.1132 60.6046 65.5931 59.9663C64.5113 59.5542 63.4752 59.5542 62.4844 59.9663C62.4844 60.1768 62.3809 60.2818 62.1736 60.2818C61.7592 60.2818 61.3445 60.2818 60.9301 60.2818C60.7706 61.7285 60.978 63.0956 61.5518 64.3835C61.1822 64.6766 60.7678 64.7817 60.3084 64.699C60.185 65.738 59.7706 66.6319 59.0649 67.3809C59.2586 68.2034 59.4659 68.9922 59.6867 69.7473C59.6867 69.8523 59.6867 69.9577 59.6867 70.0628C61.3964 70.6812 62.8469 70.2606 64.0388 68.8007C64.6282 68.4959 65.2499 68.3909 65.904 68.4852C65.904 68.9058 65.904 69.3267 65.904 69.7473C65.9248 70.2076 65.8213 70.6282 65.5931 71.0093C61.6992 71.6015 57.7615 71.812 53.7802 71.6403C53.7594 71.18 53.8629 70.7594 54.0911 70.3783C54.3634 70.4196 54.5707 70.3146 54.7128 70.0628C55.5926 68.3833 56.0069 66.5956 55.9563 64.699C55.9354 64.2387 56.039 63.8181 56.2671 63.437C57.3328 62.2232 57.7472 60.7507 57.5106 59.0198C60.5726 58.4392 63.6813 58.2288 66.8366 58.3887Z" fill="#CEB261"/>
<path fill-rule="evenodd" clip-rule="evenodd" d="M165.381 70.0636C164.632 68.9277 164.321 67.6657 164.448 66.2774C164.436 64.8633 164.643 63.4958 165.07 62.1757C165.844 61.817 166.569 61.6065 167.246 61.5447C167.372 62.0555 167.527 62.6865 167.712 63.4378C168.243 62.6777 168.502 61.8365 168.489 60.9136C169.139 60.8979 169.553 61.2134 169.733 61.8602C169.472 63.558 169.161 65.2406 168.8 66.9084C168.83 68.0582 169.037 69.1625 169.422 70.2213C168.593 70.4318 168.593 70.6419 169.422 70.8524C167.996 71.1884 166.805 70.8202 165.847 69.7481C165.728 69.9235 165.572 70.0286 165.381 70.0636Z" fill="#CEB261"/>
<path fill-rule="evenodd" clip-rule="evenodd" d="M44.7647 59.6514C43.5642 63.0387 42.6316 66.5094 41.9669 70.0634C42.8209 70.1621 43.65 70.057 44.4539 69.7478C45.2369 67.9336 46.5839 66.9871 48.4951 66.9082C48.6614 68.4265 48.3506 69.7936 47.5625 71.0099C47.4923 70.1426 47.5958 69.3011 47.8734 68.4858C47.5103 67.944 46.9921 67.7336 46.3191 67.8548C46.3104 68.7227 45.9995 69.4591 45.3865 70.0634C44.1601 70.376 42.9166 70.4811 41.6561 70.3789C41.6527 69.733 41.5491 69.102 41.3452 68.4858C41.5426 68.0232 41.8019 67.6023 42.1224 67.2237C42.5368 65.1202 42.9515 63.017 43.3658 60.9134C43.6982 60.3117 44.1645 59.8908 44.7647 59.6514Z" fill="#CEB261"/>
<path fill-rule="evenodd" clip-rule="evenodd" d="M86.7318 63.438C86.3087 64.1751 85.687 64.7007 84.8666 65.0156C85.1871 65.3942 85.4464 65.8151 85.6438 66.2777C85.752 67.9161 85.959 69.4937 86.2655 71.0104C84.9238 71.9055 83.5249 72.1156 82.0688 71.6414C82.8224 71.7386 83.5476 71.6332 84.2449 71.3259C84.4861 70.7403 84.9005 70.3197 85.4884 70.0638C84.755 69.0371 84.5477 67.9328 84.8666 66.7509C84.3273 66.378 84.0164 65.852 83.934 65.1734C84.4787 63.9817 85.4113 63.403 86.7318 63.438Z" fill="#CEB261"/>
<path fill-rule="evenodd" clip-rule="evenodd" d="M1.86562 71.6413C1.86562 71.4308 1.86562 71.2207 1.86562 71.0102C2.35803 70.7319 2.87625 70.4691 3.41995 70.2214C3.25768 70.0444 3.15416 69.834 3.10909 69.5904C4.07774 66.8379 4.90682 64.0509 5.59601 61.2293C5.55249 60.7465 5.34514 60.431 4.97428 60.2827C4.76693 60.2827 4.66342 60.1777 4.66342 59.9672C4.53192 59.6107 4.11722 59.558 3.41995 59.8094C1.78107 61.9133 1.05582 61.6502 1.24389 59.0207C4.35939 58.9159 7.46805 59.021 10.5699 59.3362C10.2543 59.7088 9.89187 60.0243 9.48184 60.2827C9.05751 59.9811 8.59121 59.771 8.08294 59.6517C7.03874 59.776 6.72788 60.3017 7.15034 61.2293C7.77207 61.4397 8.39381 61.6498 9.01554 61.8603C8.75907 62.1398 8.44821 62.2449 8.08294 62.1758C8.04688 63.2359 7.94336 64.2876 7.77207 65.331C7.46121 65.331 7.15034 65.331 6.83948 65.331C6.83948 64.6999 6.83948 64.0689 6.83948 63.4379C5.76046 63.5638 5.65694 64.037 6.52861 64.8577C5.91279 65.0486 5.80896 65.3641 6.21774 65.8042C5.71818 66.1352 5.51115 66.6085 5.59601 67.224C6.12417 67.1736 6.64239 67.2259 7.15034 67.3818C6.72383 67.7737 6.41297 68.2469 6.21774 68.8016C6.98496 69.7327 6.98496 70.6266 6.21774 71.4835C4.77066 71.6409 3.32016 71.6936 1.86562 71.6413Z" fill="#CEB261"/>
<path opacity="0.976" fill-rule="evenodd" clip-rule="evenodd" d="M165.07 62.1758C164.643 63.4959 164.436 64.8633 164.448 66.2775C164.322 67.6657 164.632 68.9278 165.381 70.0636C165.485 70.2741 165.588 70.4842 165.692 70.6947C164.769 69.8813 164.147 68.8294 163.827 67.5395C164.043 66.2866 164.199 65.0246 164.293 63.7534C164.528 63.1807 164.787 62.655 165.07 62.1758Z" fill="#CEB261"/>
<path fill-rule="evenodd" clip-rule="evenodd" d="M117.196 60.5976C117.426 60.5563 117.633 60.609 117.818 60.7554C117.234 63.2259 116.612 65.6973 115.953 68.17C116.194 69.3494 116.298 70.5064 116.263 71.6406C115.538 71.6406 114.813 71.6406 114.087 71.6406C114.087 71.3251 114.087 71.0096 114.087 70.6941C115.314 67.4001 116.35 64.0345 117.196 60.5976Z" fill="#CEB261"/>
<path opacity="0.976" fill-rule="evenodd" clip-rule="evenodd" d="M65.9031 69.7479C65.9031 69.3274 65.9031 68.9065 65.9031 68.4859C65.249 68.3915 64.6273 68.4966 64.0379 68.8014C62.846 70.2613 61.3955 70.6819 59.6858 70.0635C61.6909 70.3493 63.2452 69.6132 64.3488 67.8548C64.9382 67.5501 65.5599 67.445 66.2139 67.5393C66.3078 68.3467 66.204 69.0831 65.9031 69.7479Z" fill="#CEB261"/>
<path fill-rule="evenodd" clip-rule="evenodd" d="M169.422 58.3887C171.524 58.3843 173.544 58.8049 175.484 59.6508C176.44 59.274 177.425 59.0636 178.437 59.0197C178.23 60.0713 178.023 61.1233 177.816 62.1749C177.09 62.1749 176.365 62.1749 175.64 62.1749C174.904 61.4303 174.075 60.7992 173.153 60.2818C171.959 60.491 171.078 61.122 170.51 62.1749C169.649 64.0907 169.235 66.0888 169.267 68.1697C169.99 69.5595 170.975 69.77 172.22 68.8007C173.006 67.7598 172.955 66.8133 172.065 65.9611C171.912 65.5531 171.86 65.1322 171.909 64.699C174.054 64.9341 176.23 64.9341 178.437 64.699C178.617 65.6613 178.254 66.2923 177.349 66.5921C176.818 67.9207 176.403 69.2878 176.106 70.6938C174.84 72.3319 173.545 72.3319 172.22 70.6938C172.008 70.8083 171.8 70.9134 171.598 71.0093C170.088 71.4788 168.533 71.6892 166.935 71.6403C166.272 71.6233 165.858 71.3078 165.692 70.6938C165.588 70.4833 165.484 70.2732 165.381 70.0628C165.573 70.0277 165.728 69.9227 165.847 69.7472C166.805 70.8194 167.997 71.1876 169.422 70.8515C168.593 70.6411 168.593 70.431 169.422 70.2205C169.037 69.1616 168.83 68.0573 168.8 66.9076C169.162 65.2398 169.473 63.5572 169.733 61.8594C169.554 61.2126 169.139 60.897 168.49 60.9128C168.502 61.8357 168.243 62.6769 167.712 63.4369C167.527 62.6857 167.372 62.0547 167.246 61.5439C166.57 61.6057 165.844 61.8161 165.07 62.1749C165.835 60.1386 167.286 58.8765 169.422 58.3887Z" fill="#CEB261"/>
<path fill-rule="evenodd" clip-rule="evenodd" d="M176.572 65.9609C176.741 65.9799 176.844 66.0849 176.883 66.2765C176.194 67.0867 175.831 68.0332 175.795 69.1161C175.574 68.6513 175.212 68.4409 174.707 68.4851C174.792 69.1006 174.585 69.5739 174.085 69.9049C174.562 70.0614 175.028 70.009 175.484 69.7471C176.016 69.9481 176.068 70.2636 175.639 70.6937C174.835 71.0029 174.006 71.1079 173.152 71.0092C173.243 69.5632 173.243 68.091 173.152 66.592C174.069 66.5046 174.949 66.6096 175.795 66.9075C176.012 66.5317 176.271 66.2162 176.572 65.9609Z" fill="#CEB261"/>
<path opacity="0.488" fill-rule="evenodd" clip-rule="evenodd" d="M19.2737 68.8018C19.1419 69.7022 18.8311 70.5437 18.3411 71.3259C21.7544 71.6411 25.174 71.7461 28.5997 71.6414C25.1323 71.9553 21.609 72.0604 18.0303 71.9569C18.1086 70.7494 18.523 69.6978 19.2737 68.8018Z" fill="#CEB261"/>
<path opacity="0.404" fill-rule="evenodd" clip-rule="evenodd" d="M36.0602 71.0098C39.5683 71.6339 43.1951 71.8443 46.9405 71.6408C43.2654 71.9547 39.535 72.0598 35.7493 71.9563C35.6756 71.549 35.7791 71.2335 36.0602 71.0098Z" fill="#CEB261"/>
<path opacity="0.557" fill-rule="evenodd" clip-rule="evenodd" d="M65.5924 71.0098C65.4087 71.2152 65.2017 71.4256 64.9707 71.6408C61.1906 72.0589 57.4602 72.0589 53.7795 71.6408C57.7608 71.8124 61.6985 71.602 65.5924 71.0098Z" fill="#CEB261"/>
<path opacity="0.098" fill-rule="evenodd" clip-rule="evenodd" d="M95.4366 70.3779C95.7322 70.8256 95.8358 71.3513 95.7475 71.9555C94.4412 72.0555 93.1978 71.9501 92.0171 71.64C93.157 71.64 94.2967 71.64 95.4366 71.64C95.4366 71.2194 95.4366 70.7985 95.4366 70.3779Z" fill="#CEB261"/>
<path opacity="0.792" fill-rule="evenodd" clip-rule="evenodd" d="M120.305 68.4854C120.043 69.6209 119.939 70.7779 119.994 71.956C117.922 71.956 115.85 71.956 113.777 71.956C113.694 71.4515 113.798 71.0309 114.088 70.694C114.088 71.0095 114.088 71.325 114.088 71.6405C114.813 71.6405 115.539 71.6405 116.264 71.6405C116.678 71.6405 117.093 71.6405 117.507 71.6405C118.233 71.6405 118.958 71.6405 119.684 71.6405C119.507 70.4324 119.714 69.3805 120.305 68.4854Z" fill="#CEB261"/>
<path opacity="0.488" fill-rule="evenodd" clip-rule="evenodd" d="M130.563 70.6943C130.563 71.0099 130.563 71.3254 130.563 71.6409C132.325 71.6409 134.086 71.6409 135.848 71.6409C134.042 71.9532 132.177 72.0583 130.252 71.9564C130.169 71.4519 130.273 71.0313 130.563 70.6943Z" fill="#CEB261"/>
<path opacity="0.757" fill-rule="evenodd" clip-rule="evenodd" d="M171.599 71.0098C170.804 71.6234 169.871 71.939 168.801 71.9563C168.118 71.9547 167.496 71.8497 166.936 71.6408C168.534 71.6897 170.088 71.4792 171.599 71.0098Z" fill="#CEB261"/>
</svg>
