<svg width="166" height="72" viewBox="0 0 166 72" fill="none" xmlns="http://www.w3.org/2000/svg">
<path fill-rule="evenodd" clip-rule="evenodd" d="M106.817 6.64447C106.817 6.85492 106.817 7.06505 106.817 7.2755C106.276 7.733 105.989 8.36403 105.955 9.16859C105.732 10.843 105.636 12.5257 105.667 14.2168C105.667 14.4273 105.667 14.6374 105.667 14.8479C104.572 17.7361 103.997 20.7858 103.943 23.9978C103.943 24.3133 103.943 24.6288 103.943 24.9443C103.283 26.3566 102.708 27.8291 102.218 29.3615C101.964 32.6277 101.676 35.888 101.355 39.1425C100.88 41.8606 100.497 44.5952 100.205 47.3459C99.5279 47.3973 98.8572 47.3449 98.1931 47.1881C96.6851 45.9958 95.1517 44.8915 93.5936 43.8752C92.8933 42.7378 92.0309 41.7385 91.0064 40.8778C90.4392 40.7216 89.8642 40.6689 89.2815 40.7201C87.9468 39.488 86.4617 38.5414 84.8257 37.8804C84.4903 37.9331 84.1551 37.9855 83.8196 38.0382C82.9644 39.2403 81.9102 40.1345 80.6574 40.7201C79.582 40.4358 79.007 40.8564 78.9326 41.9821C78.6451 41.9821 78.3576 41.9821 78.0702 41.9821C78.1331 41.6114 78.0374 41.2959 77.7827 41.0356C75.9578 40.5027 75.4786 39.346 76.3453 37.5649C76.5227 37.5299 76.6664 37.4248 76.7765 37.2494C76.9988 34.5382 77.526 31.9087 78.3576 29.3615C84.444 23.0493 90.4809 16.6864 96.4683 10.2729C96.1808 10.0624 95.8934 10.0624 95.6059 10.2729C90.9595 13.5678 86.264 16.7756 81.5198 19.8961C80.4435 20.0942 79.3894 20.4097 78.3576 20.8426C78.0523 21.3228 77.8606 21.8485 77.7827 22.4202C76.8944 23.139 75.9363 23.77 74.908 24.3133C74.0249 24.2133 73.1625 24.3183 72.3207 24.6288C72.7387 26.6462 72.6907 28.6444 72.177 30.6236C71.5437 29.9392 71.3042 29.0981 71.4583 28.0995C70.6916 27.6789 69.9252 27.258 69.1586 26.8374C68.9668 26.8374 68.7754 26.8374 68.5836 26.8374C67.1733 25.9915 66.0234 25.045 65.134 23.9978C63.9105 23.7271 62.7606 23.2538 61.6843 22.578C61.1171 22.4218 60.5422 22.3691 59.9595 22.4202C59.2348 21.9375 58.9473 21.2011 59.0971 20.2116C60.9033 19.4269 62.7238 18.6908 64.559 18.003C66.4132 17.879 68.138 17.3004 69.7335 16.2677C70.4042 16.1626 71.0751 16.0572 71.7458 15.9522C72.9575 14.6756 74.3471 14.0969 75.9141 14.2168C77.0157 13.4571 78.0219 12.6159 78.9326 11.6927C79.2201 11.6927 79.5075 11.6927 79.795 11.6927C80.4726 11.7441 81.1432 11.6918 81.8073 11.5349C81.7116 11.4299 81.6155 11.3245 81.5198 11.2194C83.1455 10.6436 84.7746 10.0653 86.4068 9.4841C86.8038 9.04838 87.1873 8.62748 87.5567 8.22205C88.671 7.66926 89.8208 7.14362 91.0064 6.64447C92.6754 6.17467 94.4003 5.91153 96.1808 5.85568C95.8934 5.75062 95.6059 5.64524 95.3184 5.54017C97.2893 3.82061 99.4931 3.24228 101.93 3.80484C102.218 3.64708 102.505 3.48932 102.793 3.33157C102.697 3.2265 102.601 3.12112 102.505 3.01605C102.778 2.86366 103.065 2.81128 103.368 2.85829C103.274 4.13771 103.37 5.39977 103.655 6.64447C103.941 4.97477 104.037 3.29213 103.943 1.59624C104.945 1.13779 105.999 0.92766 107.105 0.965206C106.96 2.76332 106.769 4.55103 106.53 6.32896C106.565 6.52047 106.661 6.62554 106.817 6.64447Z" fill="#CEB261"/>
<path fill-rule="evenodd" clip-rule="evenodd" d="M106.817 6.64491C106.661 6.62598 106.565 6.52092 106.529 6.3294C106.768 4.55147 106.96 2.76376 107.104 0.965645C105.998 0.928099 104.944 1.13823 103.942 1.59667C104.036 3.29257 103.941 4.97521 103.655 6.64491C103.37 5.40021 103.274 4.13815 103.367 2.85873C103.065 2.81172 102.777 2.8641 102.505 3.01649C102.6 3.12156 102.696 3.22694 102.792 3.33201C102.505 3.48976 102.217 3.64752 101.93 3.80528C99.4926 3.24272 97.2888 3.82105 95.3179 5.54061C95.6054 5.64568 95.8929 5.75106 96.1803 5.85613C94.3997 5.91197 92.6749 6.17511 91.0059 6.64491C95.7629 4.36342 100.65 2.2072 105.667 0.176858C106.331 0.020047 107.002 -0.0323285 107.679 0.0191004C107.739 2.29743 107.451 4.50604 106.817 6.64491Z" fill="#CEB261"/>
<path fill-rule="evenodd" clip-rule="evenodd" d="M87.5566 8.22217C87.1872 8.6276 86.8038 9.0485 86.4068 9.48423C84.7745 10.0654 83.1454 10.6437 81.5197 11.2196C81.6155 11.3246 81.7115 11.43 81.8072 11.5351C81.1432 11.6919 80.4725 11.7443 79.7949 11.6928C82.1861 10.149 84.7733 8.99234 87.5566 8.22217Z" fill="#CEB261"/>
<path fill-rule="evenodd" clip-rule="evenodd" d="M106.818 7.27637C106.607 9.66418 106.224 11.9782 105.668 14.2177C105.637 12.5265 105.732 10.8439 105.955 9.16946C105.989 8.36489 106.276 7.73386 106.818 7.27637Z" fill="#CEB261"/>
<path fill-rule="evenodd" clip-rule="evenodd" d="M78.9331 11.6929C78.0224 12.6161 77.0163 13.4572 75.9147 14.217C74.3477 14.0971 72.958 14.6757 71.7463 15.9523C71.0757 16.0574 70.4047 16.1628 69.734 16.2678C68.1386 17.3005 66.4138 17.8792 64.5596 18.0032C69.4075 16.0457 74.1988 13.9422 78.9331 11.6929Z" fill="#CEB261"/>
<path opacity="0.89" fill-rule="evenodd" clip-rule="evenodd" d="M105.668 14.8481C104.981 17.9115 104.406 20.9616 103.943 23.9981C103.998 20.7861 104.573 17.7364 105.668 14.8481Z" fill="#CEB261"/>
<path fill-rule="evenodd" clip-rule="evenodd" d="M81.5203 19.8965C80.248 20.6493 79.0021 21.4908 77.7832 22.4206C77.8611 21.8489 78.0529 21.3232 78.3581 20.843C79.3899 20.4101 80.444 20.0946 81.5203 19.8965Z" fill="#CEB261"/>
<path fill-rule="evenodd" clip-rule="evenodd" d="M59.959 22.4198C60.5417 22.3686 61.1166 22.4213 61.6838 22.5775C62.7601 23.2534 63.91 23.7266 65.1335 23.9973C66.0229 25.0445 67.1728 25.9911 68.5831 26.837C65.6541 25.4187 62.7794 23.9462 59.959 22.4198Z" fill="#CEB261"/>
<path fill-rule="evenodd" clip-rule="evenodd" d="M103.943 24.9448C103.256 29.7653 102.394 34.498 101.355 39.143C101.677 35.8885 101.964 32.6282 102.218 29.362C102.708 27.8296 103.283 26.3571 103.943 24.9448Z" fill="#CEB261"/>
<path fill-rule="evenodd" clip-rule="evenodd" d="M74.3326 31.2551C74.2331 32.2338 74.4249 33.1276 74.9075 33.9369C74.2007 34.8384 74.0089 35.8373 74.3326 36.9343C74.5997 36.5592 74.6954 36.1386 74.6201 35.6723C74.9075 35.6723 75.195 35.6723 75.4825 35.6723C75.2246 37.1362 75.1766 38.6084 75.3388 40.0895C75.7168 40.6624 76.148 41.1884 76.6324 41.667C75.8191 42.3186 75.1004 42.1081 74.4763 41.036C74.3335 40.3072 74.2857 39.5711 74.3326 38.8274C74.0451 38.8274 73.7577 38.8274 73.4702 38.8274C73.2442 36.6286 72.861 34.4724 72.3203 32.3594C73.0505 32.0312 73.5297 31.4526 73.7577 30.624C73.9537 30.8585 74.1455 31.0686 74.3326 31.2551Z" fill="#CEB261"/>
<path fill-rule="evenodd" clip-rule="evenodd" d="M74.9086 24.3139C74.1934 24.8677 73.5224 25.4987 72.8963 26.207C73.4917 27.8521 73.9709 29.5347 74.3337 31.2552C74.1465 31.0688 73.9548 30.8586 73.7587 30.6242C73.5308 31.4528 73.0515 32.0314 72.3214 32.3595C72.8621 34.4725 73.2453 36.6288 73.4712 38.8276C72.3418 35.3711 71.2879 31.8481 70.3091 28.2579C69.9629 27.7218 69.5795 27.2485 69.1592 26.838C69.9259 27.2586 70.6923 27.6795 71.4589 28.1001C71.3049 29.0987 71.5443 29.9399 72.1776 30.6242C72.6913 28.645 72.7393 26.6468 72.3214 24.6294C73.1631 24.319 74.0255 24.2139 74.9086 24.3139Z" fill="#CEB261"/>
<path fill-rule="evenodd" clip-rule="evenodd" d="M63.4089 36.3033C63.4089 35.8827 63.4089 35.4618 63.4089 35.0413C64.4027 34.8961 64.8816 34.2651 64.8463 33.1482C64.148 33.2693 63.4771 33.4798 62.834 33.7792C63.3578 33.0463 63.9327 32.3628 64.5588 31.7283C65.8458 31.6763 66.277 32.36 65.8524 33.7792C64.9811 34.5784 64.1667 35.4199 63.4089 36.3033Z" fill="#CEB261"/>
<path fill-rule="evenodd" clip-rule="evenodd" d="M63.4085 36.3036C62.4503 36.9346 61.4919 37.5656 60.5338 38.1967C60.5338 38.6173 60.5338 39.0382 60.5338 39.4587C59.8369 39.5559 59.1663 39.4505 58.5215 39.1432C58.7017 38.8539 58.7977 38.5384 58.809 38.1967C60.0022 36.5885 61.3436 35.1163 62.8335 33.7795C63.4766 33.48 64.1476 33.2696 64.8458 33.1484C64.8812 34.2654 64.4023 34.8964 63.4085 35.0415C63.4085 35.4621 63.4085 35.883 63.4085 36.3036Z" fill="#CEB261"/>
<path fill-rule="evenodd" clip-rule="evenodd" d="M63.4089 36.3042C62.4507 37.3558 61.4923 38.4077 60.5342 39.4594C60.5342 39.0388 60.5342 38.6179 60.5342 38.1973C61.4923 37.5663 62.4507 36.9352 63.4089 36.3042Z" fill="#CEB261"/>
<path fill-rule="evenodd" clip-rule="evenodd" d="M74.3331 31.2544C74.996 33.3308 75.667 35.4343 76.3454 37.5647C75.4787 39.3458 75.9579 40.5024 77.7828 41.0354C78.0375 41.2957 78.1332 41.6112 78.0702 41.9819C78.3577 41.9819 78.6452 41.9819 78.9326 41.9819C79.0071 40.8561 79.582 40.4356 80.6575 40.7198C79.4748 41.8443 78.2289 42.8959 76.9204 43.875C76.3155 43.9693 75.7406 43.8643 75.1955 43.5595C74.9727 42.9613 74.6853 42.4353 74.3331 41.9819C74.0485 40.9599 73.761 39.9083 73.4707 38.8267C73.7582 38.8267 74.0456 38.8267 74.3331 38.8267C74.2863 39.5704 74.334 40.3065 74.4769 41.0354C75.1009 42.1075 75.8196 42.3179 76.6329 41.6664C76.1485 41.1877 75.7173 40.6618 75.3393 40.0888C75.1771 38.6078 75.2251 37.1356 75.483 35.6716C75.1955 35.6716 74.9081 35.6716 74.6206 35.6716C74.6959 36.1379 74.6002 36.5585 74.3331 36.9337C74.0094 35.8366 74.2012 34.8377 74.9081 33.9363C74.4254 33.127 74.2337 32.2331 74.3331 31.2544Z" fill="#CEB261"/>
<path fill-rule="evenodd" clip-rule="evenodd" d="M58.81 38.1968C58.7988 38.5385 58.7028 38.854 58.5225 39.1433C59.1673 39.4506 59.838 39.556 60.5348 39.4588C59.6204 40.8067 58.8537 40.7013 58.235 39.1433C58.2215 38.6581 58.4133 38.3425 58.81 38.1968Z" fill="#CEB261"/>
<path fill-rule="evenodd" clip-rule="evenodd" d="M89.2812 40.7205C89.864 40.6694 90.4389 40.7221 91.0061 40.8783C92.0306 41.739 92.893 42.7383 93.5933 43.8757C92.1879 42.7389 90.7505 41.6873 89.2812 40.7205Z" fill="#CEB261"/>
<path opacity="0.733" fill-rule="evenodd" clip-rule="evenodd" d="M74.333 41.9834C74.6852 42.4368 74.9726 42.9628 75.1954 43.561C75.7405 43.8658 76.3154 43.9708 76.9203 43.8765C75.309 44.5656 74.4466 43.9345 74.333 41.9834Z" fill="#CEB261"/>
<path fill-rule="evenodd" clip-rule="evenodd" d="M68.8711 45.7692C69.6082 45.3789 70.1831 45.6417 70.5959 46.5579C70.4585 47.076 70.171 47.4442 69.7335 47.6622C70.209 46.6024 69.9215 45.9714 68.8711 45.7692Z" fill="#CEB261"/>
<path fill-rule="evenodd" clip-rule="evenodd" d="M68.8715 45.7686C69.9219 45.9708 70.2094 46.6018 69.7339 47.6616C68.1048 49.6598 66.38 51.5529 64.5594 53.3409C64.0802 53.3409 63.6013 53.3409 63.1221 53.3409C63.1221 52.9203 63.1221 52.4994 63.1221 52.0789C63.2621 51.7719 63.4058 51.4563 63.5533 51.1323C65.3255 49.3474 67.0984 47.5597 68.8715 45.7686Z" fill="#CEB261"/>
<path fill-rule="evenodd" clip-rule="evenodd" d="M85.5441 45.4534C86.7365 45.4386 87.1677 46.0696 86.8377 47.3465C84.9536 49.4144 83.0851 51.4652 81.232 53.499C79.9097 53.9985 79.3825 53.5252 79.651 52.0792C81.4729 49.7116 83.4372 47.503 85.5441 45.4534Z" fill="#CEB261"/>
<path opacity="0.914" fill-rule="evenodd" clip-rule="evenodd" d="M63.1213 52.0791C63.1213 52.4997 63.1213 52.9206 63.1213 53.3412C63.6005 53.3412 64.0795 53.3412 64.5587 53.3412C64.0513 53.6444 63.4763 53.7498 62.8338 53.6567C62.7522 53.0525 62.8479 52.5268 63.1213 52.0791Z" fill="#CEB261"/>
<path fill-rule="evenodd" clip-rule="evenodd" d="M63.4102 58.389C63.027 58.389 62.6435 58.389 62.2603 58.389C59.3425 58.229 56.4678 58.4395 53.6362 59.02C53.855 60.7509 53.4718 62.2234 52.4863 63.4372C52.7505 62.4374 53.038 61.4381 53.3487 60.4398C53.0521 59.7403 53.0521 59.0569 53.3487 58.389C56.7487 57.9712 60.1023 57.9712 63.4102 58.389Z" fill="#CEB261"/>
<path fill-rule="evenodd" clip-rule="evenodd" d="M117.743 62.1755C117.138 62.2699 116.563 62.1648 116.018 61.86C115.83 61.116 115.447 60.5901 114.868 60.2825C114.588 59.8751 114.301 59.8751 114.005 60.2825C113.067 62.9523 112.3 65.6866 111.706 68.4858C111.159 69.381 110.967 70.4329 111.131 71.641C110.46 71.641 109.789 71.641 109.118 71.641C109.315 71.1122 109.698 70.9017 110.268 71.01C110.302 70.384 110.11 69.8583 109.693 69.4324C110.616 69.0897 110.904 68.4587 110.556 67.5393C110.704 66.995 110.896 66.4691 111.131 65.9617C111.33 66.1274 111.473 66.3378 111.562 66.5927C111.658 65.7513 111.754 64.9101 111.849 64.0686C112.589 62.9186 112.973 61.6565 112.999 60.2825C112.904 60.3875 112.808 60.4929 112.712 60.598C111.27 59.4495 109.785 59.3441 108.256 60.2825C107.384 60.7608 106.617 61.3918 105.956 62.1755C105.381 62.1755 104.806 62.1755 104.231 62.1755C104.231 61.86 104.231 61.5445 104.231 61.229C104.258 60.0673 104.641 59.068 105.381 58.2316C109.697 57.9688 114.009 58.0215 118.318 58.3894C118.676 59.7398 118.484 61.0018 117.743 62.1755Z" fill="#CEB261"/>
<path fill-rule="evenodd" clip-rule="evenodd" d="M146.201 64.6997C145.788 64.3132 145.309 63.9977 144.764 63.7532C145.602 62.0437 145.794 60.256 145.339 58.3895C146.14 58.0812 147.002 57.9761 147.926 58.0739C147.341 60.3106 146.766 62.5192 146.201 64.6997Z" fill="#CEB261"/>
<path fill-rule="evenodd" clip-rule="evenodd" d="M140.451 59.0198C139.191 58.9169 137.945 59.0223 136.714 59.3353C137.044 60.0007 137.428 60.6317 137.864 61.2284C136.821 61.589 136.774 62.0096 137.72 62.4904C137.839 62.3462 137.983 62.2409 138.151 62.1749C138.397 62.6318 138.684 63.0524 139.013 63.437C138.822 63.542 138.63 63.6474 138.439 63.7525C138.712 64.3693 139.096 64.8953 139.588 65.3301C139.787 65.1644 139.931 64.954 140.02 64.699C140.087 65.5534 140.327 66.3422 140.738 67.0654C140.236 68.0192 140.38 68.808 141.169 69.4318C141.311 69.1008 141.263 68.7853 141.026 68.4852C141.125 68.1079 141.269 68.1079 141.457 68.4852C141.357 69.3595 141.405 70.201 141.601 71.0093C142.615 71.1706 143.526 70.9601 144.332 70.3783C144.861 68.7351 145.053 67.0521 144.907 65.3301C144.623 65.1183 144.288 65.1183 143.9 65.3301C144.761 63.0341 145.24 60.7201 145.338 58.3887C145.793 60.2553 145.601 62.043 144.763 63.7525C145.308 63.997 145.787 64.3125 146.2 64.699C145.773 66.4817 145.342 68.2694 144.907 70.0628C144.025 72.1345 142.779 72.45 141.169 71.0093C140.099 68.554 138.949 66.1349 137.72 63.7525C136.838 66.1854 136.215 68.7095 135.851 71.3248C134.973 71.8893 134.015 72.0997 132.977 71.9559C134.653 67.7516 135.707 63.3344 136.139 58.7042C136.857 58.3487 137.623 58.1382 138.439 58.0732C139.297 57.9764 139.968 58.2919 140.451 59.0198Z" fill="#CEB261"/>
<path opacity="0.865" fill-rule="evenodd" clip-rule="evenodd" d="M114.866 60.2827C115.445 60.5903 115.828 61.1163 116.016 61.8603C116.561 62.1651 117.136 62.2701 117.741 62.1758C117.11 62.585 116.44 62.585 115.729 62.1758C115.437 61.5363 115.15 60.9052 114.866 60.2827Z" fill="#CEB261"/>
<path fill-rule="evenodd" clip-rule="evenodd" d="M62.259 58.3892C62.6422 58.3892 63.0256 58.3892 63.4088 58.3892C63.665 58.6293 63.8567 58.9448 63.9838 59.3357C63.8061 60.381 63.5187 61.3799 63.1214 62.3331C62.5237 62.588 61.9488 62.5353 61.3965 62.1753C61.1496 60.1428 60.0957 59.4067 58.2344 59.9667C59.1505 59.5547 60.1087 59.5547 61.1091 59.9667C61.59 60.605 61.7818 61.3411 61.684 62.1753C61.9715 62.1753 62.259 62.1753 62.5464 62.1753C62.5668 61.2884 62.7586 60.4469 63.1214 59.6512C63.0389 59.0382 62.7514 58.6173 62.259 58.3892Z" fill="#CEB261"/>
<path fill-rule="evenodd" clip-rule="evenodd" d="M97.0434 58.3894C97.3547 58.4017 97.6422 58.5071 97.9058 58.7049C98.2766 59.6233 98.5641 60.5699 98.7682 61.5445C98.0515 64.7959 97.3809 68.0561 96.7559 71.3255C95.9024 71.7161 94.992 71.9265 94.0249 71.9565C93.2105 71.9038 92.3958 71.8514 91.5814 71.7987C91.45 71.6681 91.354 71.5104 91.2939 71.3255C92 70.4827 92.4792 69.5362 92.7313 68.4858C93.3804 68.3991 93.4764 68.0836 93.0188 67.5393C92.6356 67.3288 92.2521 67.1187 91.8689 66.9083C92.6123 66.5991 93.379 66.494 94.1687 66.5928C94.2204 65.2067 94.4121 63.8396 94.7436 62.4911C94.7275 61.8159 94.5358 61.2902 94.1687 60.9135C94.1687 60.8084 94.1687 60.703 94.1687 60.598C94.1511 59.9379 93.8637 59.4646 93.3062 59.1782C93.4376 59.0475 93.5336 58.8898 93.5937 58.7049C94.7278 58.3922 95.8777 58.2871 97.0434 58.3894Z" fill="#CEB261"/>
<path opacity="0.804" fill-rule="evenodd" clip-rule="evenodd" d="M157.125 58.3897C159.023 57.8606 160.843 58.1761 162.587 59.3363C163.181 58.9886 163.756 58.6207 164.312 58.232C165.354 57.9676 165.833 58.4408 165.749 59.6518C165.512 60.5952 165.272 61.5417 165.03 62.4914C164.219 63.3013 163.501 63.1963 162.874 62.1759C163.545 62.1759 164.216 62.1759 164.887 62.1759C165.078 61.1243 165.27 60.0724 165.462 59.0207C164.525 59.0646 163.615 59.275 162.731 59.6518C160.937 58.8059 159.068 58.3853 157.125 58.3897Z" fill="#CEB261"/>
<path fill-rule="evenodd" clip-rule="evenodd" d="M72.8953 66.9077C72.3721 68.4587 72.1804 70.0363 72.3203 71.6404C70.5099 71.9546 68.689 72.06 66.8584 71.9559C67.8809 68.3013 68.9351 64.6202 70.0206 60.9129C70.2287 60.3708 70.4205 59.7922 70.5955 59.1776C71.99 58.8829 73.3314 58.9879 74.6201 59.4931C74.1024 59.5931 74.0067 59.8035 74.3326 60.1241C73.954 61.3518 73.6666 62.6138 73.4702 63.9103C73.8161 64.3419 74.1035 64.8152 74.3326 65.3301C73.453 65.2408 72.9738 65.7665 72.8953 66.9077Z" fill="#CEB261"/>
<path opacity="0.867" fill-rule="evenodd" clip-rule="evenodd" d="M104.229 61.229C104.229 61.5445 104.229 61.86 104.229 62.1756C104.804 62.1756 105.379 62.1756 105.954 62.1756C105.348 62.481 104.677 62.5864 103.942 62.4911C103.865 61.9866 103.961 61.566 104.229 61.229Z" fill="#CEB261"/>
<path fill-rule="evenodd" clip-rule="evenodd" d="M109.117 71.6407C108.734 71.6407 108.35 71.6407 107.967 71.6407C107.999 70.5064 107.903 69.3494 107.68 68.17C108.289 65.6974 108.864 63.2259 109.405 60.7554C109.234 60.609 109.042 60.5564 108.83 60.5977C108.731 60.3333 108.54 60.2279 108.255 60.2822C109.784 59.3438 111.269 59.4492 112.71 60.5977C112.806 60.4926 112.902 60.3872 112.998 60.2822C112.971 61.6562 112.588 62.9183 111.848 64.0683C111.752 64.9098 111.656 65.751 111.561 66.5925C111.472 66.3375 111.328 66.1271 111.129 65.9614C110.894 66.4688 110.702 66.9947 110.554 67.539C110.903 68.4584 110.615 69.0894 109.692 69.4321C110.109 69.858 110.301 70.3837 110.267 71.0097C109.697 70.9015 109.313 71.1119 109.117 71.6407Z" fill="#CEB261"/>
<path fill-rule="evenodd" clip-rule="evenodd" d="M140.452 59.0205C141.602 61.1241 142.752 63.2273 143.902 65.3308C144.289 65.1191 144.624 65.1191 144.908 65.3308C145.054 67.0529 144.863 68.7359 144.333 70.3791C143.527 70.9609 142.617 71.1713 141.602 71.0101C141.406 70.2017 141.358 69.3603 141.458 68.486C141.27 68.1086 141.126 68.1086 141.027 68.486C141.264 68.786 141.312 69.1015 141.171 69.4325C140.381 68.8088 140.237 68.02 140.739 67.0662C140.328 66.343 140.089 65.5542 140.021 64.6998C139.932 64.9547 139.788 65.1652 139.59 65.3308C139.097 64.8961 138.714 64.3701 138.44 63.7533C138.631 63.6482 138.823 63.5428 139.015 63.4377C138.685 63.0531 138.398 62.6325 138.152 62.1757C137.984 62.2416 137.84 62.347 137.721 62.4912C136.775 62.0104 136.823 61.5898 137.865 61.2291C137.429 60.6325 137.045 60.0015 136.715 59.3361C137.946 59.0231 139.192 58.9177 140.452 59.0205Z" fill="#CEB261"/>
<path fill-rule="evenodd" clip-rule="evenodd" d="M28.338 61.2286C28.3607 60.7774 28.265 60.3565 28.0505 59.9666C26.9164 59.6539 25.7665 59.5488 24.6008 59.651C24.6008 60.2821 24.6008 60.9131 24.6008 61.5441C24.6503 61.8571 24.5543 62.0673 24.3134 62.1752C24.0371 62.7321 23.9411 63.3631 24.0259 64.0683C25.1059 64.0007 25.2977 64.3163 24.6008 65.0148C24.1567 65.3152 23.6775 65.4202 23.1635 65.3303C23.1635 65.7509 23.1635 66.1718 23.1635 66.5924C22.926 67.7396 22.7346 68.8966 22.5885 70.063C24.3939 70.4051 25.7355 69.7217 26.6131 68.0122C27.6552 67.2187 28.3262 67.4815 28.6254 68.801C28.6657 70.252 28.0907 71.1986 26.9006 71.6406C23.7327 71.7454 20.5705 71.6403 17.4141 71.3251C17.8671 70.5429 18.1546 69.7015 18.2765 68.801C18.8103 66.0487 19.433 63.3142 20.145 60.5976C20.2879 59.7627 20.3359 58.9213 20.2888 58.0735C23.5481 58.0208 26.8063 58.0735 30.0628 58.2312C30.5558 58.4764 30.8433 58.897 30.9252 59.4933C30.5739 60.3464 30.2864 61.2406 30.0628 62.1752C29.0155 62.7731 28.4406 62.4576 28.338 61.2286Z" fill="#CEB261"/>
<path fill-rule="evenodd" clip-rule="evenodd" d="M28.3377 61.2291C27.584 60.075 26.5301 59.7071 25.1755 60.1248C25.0033 60.6366 24.8116 61.1099 24.6006 61.5447C24.6006 60.9136 24.6006 60.2826 24.6006 59.6516C25.7663 59.5493 26.9162 59.6544 28.0502 59.9671C28.2647 60.3571 28.3604 60.778 28.3377 61.2291Z" fill="#CEB261"/>
<path fill-rule="evenodd" clip-rule="evenodd" d="M5.05342 60.2827C5.39638 60.431 5.58812 60.7465 5.62836 61.2293C4.99104 64.0509 4.22436 66.8378 3.3286 69.5904C3.37028 69.834 3.46601 70.0444 3.61607 70.2214C3.11328 70.4691 2.63407 70.7319 2.17871 71.0102C3.59307 67.6121 4.55121 64.0361 5.05342 60.2827Z" fill="#CEB261"/>
<path fill-rule="evenodd" clip-rule="evenodd" d="M126.077 71.6414C124.448 71.6414 122.82 71.6414 121.19 71.6414C121.19 71.3258 121.19 71.0103 121.19 70.6948C122.561 66.602 123.52 62.3949 124.065 58.0742C125.886 58.0742 127.707 58.0742 129.527 58.0742C128.146 62.5173 126.996 67.0396 126.077 71.6414Z" fill="#CEB261"/>
<path fill-rule="evenodd" clip-rule="evenodd" d="M41.849 59.6518C41.2939 59.8913 40.8627 60.3122 40.5554 60.9139C40.1722 63.0174 39.7887 65.1207 39.4055 67.2242C39.1091 67.6028 38.8694 68.0237 38.6868 68.4863C38.8754 69.1025 38.9711 69.7335 38.9743 70.3793C40.14 70.4816 41.2899 70.3765 42.4239 70.0638C42.9908 69.4596 43.2783 68.7232 43.2863 67.8552C43.9087 67.7341 44.3879 67.9445 44.7237 68.4863C44.467 69.3015 44.3713 70.143 44.4362 71.0104C44.2445 71.2208 44.053 71.431 43.8613 71.6414C40.3978 71.8449 37.0439 71.6345 33.7998 71.0104C34.678 68.8901 35.3967 66.6815 35.9558 64.3846C36.406 62.4539 36.7415 60.5608 36.962 58.7053C37.1943 58.6081 37.386 58.4504 37.5369 58.232C39.0671 58.0746 40.6002 58.0219 42.1365 58.0743C42.2181 58.6785 42.1224 59.2041 41.849 59.6518Z" fill="#CEB261"/>
<path fill-rule="evenodd" clip-rule="evenodd" d="M80.6573 63.4374C81.6468 60.2311 80.5926 58.7586 77.4951 59.0202C76.7284 59.1252 75.962 59.2306 75.1953 59.3357C75.722 59.5114 76.1052 59.8269 76.3452 60.2822C76.7399 60.2327 77.1234 60.2854 77.4951 60.44C77.2784 62.552 76.3199 64.0769 74.6204 65.0149C75.764 66.1445 76.0514 67.5119 75.4828 69.1166C75.7608 69.8303 75.9525 70.5664 76.0578 71.3252C75.7536 70.9782 75.5139 70.5573 75.3391 70.0632C75.2434 68.8011 75.1473 67.5391 75.0516 66.277C74.1251 65.7532 73.4064 65.9634 72.8956 66.908C72.9741 65.7668 73.4533 65.2412 74.3329 65.3305C74.1038 64.8155 73.8164 64.3423 73.4705 63.9106C73.6669 62.6142 73.9543 61.3521 74.3329 60.1245C74.0069 59.8039 74.1027 59.5935 74.6204 59.4934C73.3317 58.9883 71.9903 58.8832 70.5958 59.1779C70.4207 59.7925 70.229 60.3712 70.0209 60.9133C70.0732 60.2535 69.9772 59.6225 69.7334 59.0202C69.9251 58.8097 70.1166 58.5996 70.3083 58.3891C72.7941 58.0216 75.2856 57.9689 77.7826 58.2314C79.6736 58.3336 80.9192 59.3325 81.5197 61.2288C81.4447 62.1097 81.1572 62.8458 80.6573 63.4374ZM76.3452 60.2822C76.533 60.6946 76.7247 61.1152 76.9202 61.5443C76.5243 62.1087 76.2369 62.7398 76.0578 63.4374C75.4799 63.9646 74.8093 64.175 74.0455 64.0684C74.0144 62.8862 74.1582 61.7292 74.4767 60.5977C75.0062 59.8613 75.6291 59.7559 76.3452 60.2822Z" fill="#CEB261"/>
<path fill-rule="evenodd" clip-rule="evenodd" d="M57.947 60.2827C57.7095 61.4299 57.5181 62.5869 57.372 63.7534C58.4262 63.3328 59.4801 62.9119 60.5342 62.4913C60.5543 63.7297 60.3626 64.8864 59.9593 65.962C59.8995 65.1984 59.9955 64.4623 60.2468 63.7534C60.055 63.6483 59.8636 63.5429 59.6718 63.4379C59.2222 63.8383 58.743 64.2065 58.2345 64.5422C58.0183 64.7539 57.9223 65.0167 57.947 65.331C57.4873 65.2464 57.1041 65.3518 56.7971 65.6465C56.3742 66.9713 55.9907 68.3388 55.6472 69.7482C55.4431 68.9931 55.2514 68.2043 55.0723 67.3818C55.7248 66.6328 56.108 65.7389 56.2222 64.6999C56.647 64.7826 57.0302 64.6775 57.372 64.3844C56.8414 63.0965 56.6496 61.7294 56.7971 60.2827C57.1803 60.2827 57.5638 60.2827 57.947 60.2827Z" fill="#CEB261"/>
<path fill-rule="evenodd" clip-rule="evenodd" d="M59.9595 65.9616C60.0089 66.2746 59.9129 66.4847 59.672 66.5926C59.2471 66.6753 58.8639 66.5702 58.5221 66.2771C58.395 65.8862 58.2033 65.5707 57.9472 65.3306C57.9224 65.0163 58.0184 64.7535 58.2346 64.5418C58.7432 64.2061 59.2224 63.8379 59.672 63.4375C59.8637 63.5426 60.0552 63.6479 60.2469 63.753C59.9957 64.462 59.8997 65.1981 59.9595 65.9616Z" fill="#CEB261"/>
<path fill-rule="evenodd" clip-rule="evenodd" d="M24.313 62.1758C24.313 62.7017 24.313 63.2274 24.313 63.7534C25.3047 63.3085 26.3586 63.0983 27.4752 63.1223C27.3892 64.3938 27.1017 65.6032 26.6127 66.7507C26.421 66.8034 26.2295 66.8558 26.0378 66.9085C25.5408 66.3633 24.9658 65.9427 24.313 65.6464C23.7544 65.737 23.3709 66.0525 23.1631 66.593C23.1631 66.1724 23.1631 65.7515 23.1631 65.3309C23.6771 65.4208 24.1563 65.3158 24.6004 65.0154C25.2973 64.3169 25.1055 64.0013 24.0255 64.0689C23.9407 63.3637 24.0367 62.7327 24.313 62.1758Z" fill="#CEB261"/>
<path fill-rule="evenodd" clip-rule="evenodd" d="M2.17795 71.641C3.52303 71.6934 4.86437 71.6407 6.20254 71.4832C6.91202 70.6263 6.91202 69.7324 6.20254 68.8014C6.38307 68.2467 6.67054 67.7734 7.06495 67.3815C6.59523 67.2257 6.11601 67.1733 5.6276 67.2238C5.54912 66.6082 5.74058 66.1349 6.20254 65.804C5.82452 65.3638 5.92053 65.0483 6.49001 64.8574C5.68394 64.0368 5.77967 63.5635 6.77748 63.4376C6.77748 64.0686 6.77748 64.6997 6.77748 65.3307C7.06495 65.3307 7.35243 65.3307 7.6399 65.3307C7.79829 64.2873 7.89402 63.2357 7.92737 62.1755C8.26515 62.2446 8.55262 62.1396 8.78978 61.86C8.21484 61.6496 7.6399 61.4394 7.06495 61.229C6.67428 60.3014 6.96175 59.7757 7.92737 59.6514C8.39738 59.7707 8.82859 59.9808 9.22099 60.2825C9.60016 60.024 9.93535 59.7085 10.2271 59.3359C7.35875 59.0207 4.48404 58.9156 1.60301 59.0204C1.42909 61.6499 2.09976 61.913 3.6153 59.8092C4.2601 59.5577 4.64359 59.6104 4.76519 59.9669C4.46277 59.9199 4.1753 59.9723 3.90278 60.1247C3.32783 60.8608 2.75289 61.5972 2.17795 62.3333C1.11373 62.7728 0.538791 62.4046 0.453125 61.229C0.473248 59.9449 0.952462 58.9459 1.89048 58.2316C6.01425 57.9688 10.1346 58.0215 14.2517 58.3894C14.5148 58.6506 14.7062 58.9661 14.8267 59.3359C14.5964 60.3039 14.3089 61.2505 13.9643 62.1755C13.412 62.5355 12.8371 62.5882 12.2394 62.3333C11.889 61.4076 11.3618 60.6188 10.6583 59.9669C10.2958 60.0487 10.0084 60.2591 9.79593 60.598C8.74321 64.2718 7.9288 67.9526 7.35243 71.641C5.58333 72.0565 3.8585 72.0565 2.17795 71.641Z" fill="#CEB261"/>
<path opacity="0.71" fill-rule="evenodd" clip-rule="evenodd" d="M56.7979 65.6465C57.1049 65.3518 57.4881 65.2464 57.9477 65.331C58.2039 65.5711 58.3956 65.8866 58.5227 66.2775C58.8645 66.5706 59.2477 66.6757 59.6726 66.593C59.5009 66.7946 59.2615 66.8997 58.9539 66.9085C58.3347 66.2813 57.616 65.8604 56.7979 65.6465Z" fill="#CEB261"/>
<path opacity="0.984" fill-rule="evenodd" clip-rule="evenodd" d="M97.0432 58.3893C95.8775 58.2871 94.7276 58.3922 93.5935 58.7049C93.5334 58.8897 93.4374 59.0475 93.306 59.1781C93.8634 59.4646 94.1509 59.9379 94.1685 60.5979C93.4371 60.473 92.8142 60.6834 92.2999 61.229C91.8368 62.3651 91.2618 63.4171 90.5751 64.3841C90.4328 65.0066 90.3848 65.6377 90.4313 66.2772C91.5372 66.3147 92.5914 66.1046 93.5935 65.6462C93.8977 64.3472 94.1851 63.0325 94.4559 61.7022C94.3861 61.4176 94.2901 61.1548 94.1685 60.9135C94.5356 61.2902 94.7273 61.8158 94.7434 62.491C94.4119 63.8395 94.2202 65.2067 94.1685 66.5927C93.3788 66.494 92.6121 66.599 91.8687 66.9082C92.2519 67.1187 92.6354 67.3288 93.0186 67.5393C93.4762 68.0835 93.3802 68.399 92.7311 68.4858C92.7558 68.1716 92.6598 67.9087 92.4436 67.697C90.1666 66.8855 88.9209 67.7794 88.7065 70.3789C88.7065 70.7995 88.7065 71.2204 88.7065 71.641C87.6523 71.641 86.5985 71.641 85.5443 71.641C85.3727 71.5668 85.277 71.409 85.2568 71.1677C86.2411 70.218 87.0555 69.1137 87.7003 67.8548C88.7559 65.3275 89.8101 62.8034 90.8625 60.2824C92.5488 58.1394 94.6091 57.5084 97.0432 58.3893Z" fill="#CEB261"/>
<path fill-rule="evenodd" clip-rule="evenodd" d="M80.658 63.4375C79.4368 63.4025 78.5744 63.9812 78.0707 65.1729C78.1469 65.8515 78.4344 66.3775 78.9332 66.7504C78.6382 67.9323 78.83 69.0366 79.5081 70.0633C78.9645 70.3192 78.5813 70.7398 78.3582 71.3254C77.7134 71.6327 77.0428 71.7381 76.3459 71.6409C76.1542 71.6409 76.0584 71.5358 76.0584 71.3254C75.9532 70.5666 75.7615 69.8305 75.4835 69.1168C76.0521 67.5121 75.7647 66.1446 74.6211 65.0151C76.3206 64.0771 77.2791 62.5522 77.4958 60.4401C77.1241 60.2855 76.7406 60.2328 76.3459 60.2824C76.1059 59.8271 75.7227 59.5116 75.196 59.3358C75.9627 59.2308 76.7291 59.1254 77.4958 59.0203C80.5933 58.7588 81.6475 60.2313 80.658 63.4375Z" fill="#CEB261"/>
<path opacity="0.8" fill-rule="evenodd" clip-rule="evenodd" d="M52.1975 64.7002C52.2444 66.5968 51.8612 68.3845 51.0476 70.0639C50.9162 70.3157 50.7245 70.4208 50.4727 70.3795C51.2253 68.5252 51.8002 66.6321 52.1975 64.7002Z" fill="#CEB261"/>
<path fill-rule="evenodd" clip-rule="evenodd" d="M62.2598 58.3892C62.7522 58.6173 63.0397 59.0382 63.1222 59.6513C62.7594 60.447 62.5677 61.2885 62.5473 62.1754C62.2598 62.1754 61.9723 62.1754 61.6849 62.1754C61.7826 61.3412 61.5908 60.6051 61.1099 59.9668C60.1095 59.5547 59.1514 59.5547 58.2352 59.9668C58.2352 60.1772 58.1395 60.2823 57.9477 60.2823C57.5645 60.2823 57.181 60.2823 56.7978 60.2823C56.6504 61.7289 56.8421 63.0961 57.3728 64.384C57.031 64.6771 56.6478 64.7822 56.2229 64.6995C56.1088 65.7385 55.7256 66.6324 55.073 67.3814C55.2521 68.2039 55.4439 68.9927 55.648 69.7477C55.648 69.8528 55.648 69.9582 55.648 70.0633C57.2291 70.6817 58.5704 70.2611 59.6726 68.8012C60.2176 68.4964 60.7925 68.3914 61.3974 68.4857C61.3974 68.9063 61.3974 69.3272 61.3974 69.7477C61.4166 70.2081 61.3209 70.6287 61.1099 71.0098C57.509 71.602 53.8677 71.8125 50.186 71.6408C50.1668 71.1805 50.2625 70.7599 50.4735 70.3788C50.7253 70.4201 50.9171 70.315 51.0484 70.0633C51.862 68.3838 52.2452 66.5961 52.1983 64.6995C52.179 64.2392 52.2748 63.8186 52.4858 63.4375C53.4712 62.2237 53.8544 60.7512 53.6357 59.0202C56.4673 58.4397 59.342 58.2293 62.2598 58.3892Z" fill="#CEB261"/>
<path fill-rule="evenodd" clip-rule="evenodd" d="M153.388 70.0636C152.696 68.9277 152.408 67.6657 152.525 66.2774C152.514 64.8633 152.705 63.4958 153.1 62.1757C153.817 61.817 154.487 61.6065 155.113 61.5447C155.229 62.0555 155.373 62.6865 155.544 63.4378C156.035 62.6777 156.274 61.8365 156.263 60.9136C156.863 60.8979 157.247 61.2134 157.413 61.8602C157.172 63.558 156.884 65.2406 156.55 66.9084C156.578 68.0582 156.769 69.1625 157.125 70.2213C156.358 70.4318 156.358 70.6419 157.125 70.8524C155.807 71.1884 154.705 70.8202 153.819 69.7481C153.709 69.9235 153.565 70.0286 153.388 70.0636Z" fill="#CEB261"/>
<path fill-rule="evenodd" clip-rule="evenodd" d="M41.8487 59.6514C40.7385 63.0387 39.8761 66.5094 39.2615 70.0634C40.0512 70.1621 40.8178 70.057 41.5612 69.7478C42.2854 67.9336 43.531 66.9871 45.2984 66.9082C45.4522 68.4265 45.1647 69.7936 44.436 71.0099C44.371 70.1426 44.4667 69.3011 44.7234 68.4858C44.3877 67.944 43.9084 67.7336 43.2861 67.8548C43.278 68.7227 42.9905 69.4591 42.4237 70.0634C41.2896 70.376 40.1397 70.4811 38.974 70.3789C38.9708 69.733 38.8751 69.102 38.6865 68.4858C38.8691 68.0232 39.1088 67.6023 39.4052 67.2237C39.7884 65.1202 40.1719 63.017 40.5551 60.9134C40.8624 60.3117 41.2936 59.8908 41.8487 59.6514Z" fill="#CEB261"/>
<path fill-rule="evenodd" clip-rule="evenodd" d="M80.6578 63.4375C80.2665 64.1746 79.6916 64.7002 78.9329 65.0151C79.2293 65.3937 79.4691 65.8146 79.6516 66.2772C79.7517 67.9156 79.9431 69.4932 80.2266 71.0099C78.9858 71.905 77.6922 72.1151 76.3457 71.6409C77.0425 71.7381 77.7132 71.6327 78.358 71.3254C78.5811 70.7398 78.9643 70.3192 79.5079 70.0633C78.8297 69.0367 78.638 67.9324 78.9329 66.7504C78.4342 66.3775 78.1467 65.8515 78.0705 65.1729C78.5742 63.9812 79.4366 63.4025 80.6578 63.4375Z" fill="#CEB261"/>
<path fill-rule="evenodd" clip-rule="evenodd" d="M2.17797 71.6408C2.17797 71.4303 2.17797 71.2202 2.17797 71.0097C2.63333 70.7315 3.11254 70.4686 3.61533 70.221C3.46527 70.0439 3.36954 69.8335 3.32786 69.5899C4.22362 66.8374 4.99031 64.0504 5.62763 61.2288C5.58739 60.746 5.39564 60.4305 5.05269 60.2822C4.86094 60.2822 4.76522 60.1772 4.76522 59.9667C4.64362 59.6102 4.26013 59.5575 3.61533 59.809C2.09978 61.9128 1.42911 61.6497 1.60303 59.0202C4.48407 58.9154 7.35878 59.0205 10.2272 59.3357C9.93539 59.7083 9.6002 60.0238 9.22102 60.2822C8.82862 59.9806 8.39742 59.7705 7.9274 59.6512C6.96179 59.7755 6.67431 60.3012 7.06499 61.2288C7.63993 61.4392 8.21487 61.6494 8.78982 61.8598C8.55265 62.1394 8.26518 62.2444 7.9274 62.1753C7.89405 63.2355 7.79833 64.2871 7.63993 65.3305C7.35246 65.3305 7.06499 65.3305 6.77752 65.3305C6.77752 64.6994 6.77752 64.0684 6.77752 63.4374C5.7797 63.5633 5.68398 64.0365 6.49004 64.8572C5.92056 65.0481 5.82455 65.3636 6.20257 65.8037C5.74061 66.1347 5.54915 66.608 5.62763 67.2236C6.11604 67.1731 6.59526 67.2255 7.06499 67.3813C6.67058 67.7732 6.38311 68.2465 6.20257 68.8011C6.91205 69.7322 6.91205 70.6261 6.20257 71.483C4.86439 71.6405 3.52305 71.6931 2.17797 71.6408Z" fill="#CEB261"/>
<path opacity="0.976" fill-rule="evenodd" clip-rule="evenodd" d="M153.1 62.1758C152.705 63.4959 152.514 64.8633 152.525 66.2775C152.408 67.6657 152.695 68.9278 153.388 70.0636C153.483 70.2741 153.579 70.4842 153.675 70.6947C152.822 69.8813 152.247 68.8294 151.95 67.5395C152.151 66.2866 152.294 65.0246 152.381 63.7534C152.599 63.1807 152.838 62.655 153.1 62.1758Z" fill="#CEB261"/>
<path fill-rule="evenodd" clip-rule="evenodd" d="M108.83 60.5976C109.042 60.5563 109.234 60.609 109.405 60.7554C108.865 63.2259 108.29 65.6973 107.68 68.17C107.904 69.3494 107.999 70.5064 107.967 71.6406C107.297 71.6406 106.626 71.6406 105.955 71.6406C105.955 71.3251 105.955 71.0096 105.955 70.6941C107.089 67.4001 108.048 64.0345 108.83 60.5976Z" fill="#CEB261"/>
<path opacity="0.976" fill-rule="evenodd" clip-rule="evenodd" d="M61.3969 69.7479C61.3969 69.3274 61.3969 68.9065 61.3969 68.4859C60.792 68.3915 60.2171 68.4966 59.672 68.8014C58.5699 70.2613 57.2285 70.6819 55.6475 70.0635C57.5016 70.3493 58.939 69.6132 59.9595 67.8548C60.5046 67.5501 61.0795 67.445 61.6843 67.5393C61.7711 68.3467 61.6751 69.0831 61.3969 69.7479Z" fill="#CEB261"/>
<path fill-rule="evenodd" clip-rule="evenodd" d="M157.125 58.3892C159.068 58.3848 160.937 58.8054 162.731 59.6513C163.615 59.2745 164.526 59.0641 165.462 59.0202C165.27 60.0718 165.079 61.1238 164.887 62.1754C164.216 62.1754 163.545 62.1754 162.875 62.1754C162.195 61.4308 161.428 60.7997 160.575 60.2823C159.471 60.4915 158.656 61.1225 158.131 62.1754C157.335 64.0912 156.952 66.0893 156.981 68.1702C157.65 69.56 158.561 69.7704 159.712 68.8012C160.44 67.7603 160.392 66.8138 159.569 65.9615C159.428 65.5536 159.38 65.1327 159.425 64.6995C161.409 64.9345 163.421 64.9345 165.462 64.6995C165.628 65.6618 165.292 66.2928 164.456 66.5926C163.964 67.9212 163.581 69.2883 163.306 70.6943C162.136 72.3324 160.938 72.3324 159.712 70.6943C159.516 70.8088 159.324 70.9139 159.137 71.0098C157.741 71.4793 156.303 71.6897 154.825 71.6408C154.213 71.6238 153.829 71.3083 153.676 70.6943C153.58 70.4838 153.484 70.2737 153.388 70.0632C153.565 70.0282 153.709 69.9232 153.819 69.7477C154.705 70.8198 155.807 71.188 157.125 70.852C156.358 70.6416 156.358 70.4314 157.125 70.221C156.769 69.1621 156.578 68.0578 156.55 66.9081C156.884 65.2403 157.172 63.5576 157.413 61.8599C157.247 61.2131 156.864 60.8975 156.263 60.9133C156.274 61.8362 156.035 62.6774 155.544 63.4374C155.373 62.6862 155.229 62.0552 155.113 61.5443C154.487 61.6062 153.817 61.8166 153.101 62.1754C153.808 60.139 155.15 58.877 157.125 58.3892Z" fill="#CEB261"/>
<path fill-rule="evenodd" clip-rule="evenodd" d="M163.736 65.9614C163.893 65.9804 163.988 66.0854 164.024 66.2769C163.387 67.0872 163.051 68.0337 163.018 69.1166C162.814 68.6518 162.478 68.4414 162.012 68.4855C162.09 69.1011 161.899 69.5744 161.437 69.9054C161.878 70.0619 162.309 70.0095 162.73 69.7476C163.223 69.9486 163.27 70.2641 162.874 70.6941C162.131 71.0034 161.364 71.1084 160.574 71.0097C160.658 69.5637 160.658 68.0915 160.574 66.5925C161.422 66.5051 162.236 66.6101 163.018 66.908C163.218 66.5322 163.458 66.2167 163.736 65.9614Z" fill="#CEB261"/>
<path opacity="0.488" fill-rule="evenodd" clip-rule="evenodd" d="M18.2759 68.8018C18.154 69.7022 17.8665 70.5437 17.4134 71.3259C20.5699 71.6411 23.7321 71.7461 26.9 71.6414C23.6935 71.9553 20.4353 72.0604 17.126 71.9569C17.1984 70.7494 17.5816 69.6978 18.2759 68.8018Z" fill="#CEB261"/>
<path opacity="0.404" fill-rule="evenodd" clip-rule="evenodd" d="M33.7999 71.0103C37.044 71.6343 40.398 71.8448 43.8614 71.6413C40.4629 71.9552 37.0133 72.0603 33.5125 71.9568C33.4443 71.5495 33.5401 71.234 33.7999 71.0103Z" fill="#CEB261"/>
<path opacity="0.557" fill-rule="evenodd" clip-rule="evenodd" d="M61.1094 71.0103C60.9395 71.2157 60.7481 71.4261 60.5345 71.6413C57.0388 72.0593 53.5892 72.0593 50.1855 71.6413C53.8672 71.8129 57.5086 71.6025 61.1094 71.0103Z" fill="#CEB261"/>
<path opacity="0.098" fill-rule="evenodd" clip-rule="evenodd" d="M88.7071 70.3779C88.9805 70.8256 89.0762 71.3513 88.9946 71.9555C87.7866 72.0555 86.6367 71.9501 85.5449 71.64C86.5991 71.64 87.6529 71.64 88.7071 71.64C88.7071 71.2194 88.7071 70.7985 88.7071 70.3779Z" fill="#CEB261"/>
<path opacity="0.792" fill-rule="evenodd" clip-rule="evenodd" d="M111.705 68.4858C111.463 69.6214 111.367 70.7784 111.418 71.9565C109.501 71.9565 107.585 71.9565 105.668 71.9565C105.591 71.452 105.687 71.0314 105.956 70.6944C105.956 71.01 105.956 71.3255 105.956 71.641C106.626 71.641 107.297 71.641 107.968 71.641C108.351 71.641 108.735 71.641 109.118 71.641C109.789 71.641 110.46 71.641 111.13 71.641C110.967 70.4329 111.158 69.381 111.705 68.4858Z" fill="#CEB261"/>
<path opacity="0.488" fill-rule="evenodd" clip-rule="evenodd" d="M121.19 70.6943C121.19 71.0099 121.19 71.3254 121.19 71.6409C122.819 71.6409 124.448 71.6409 126.077 71.6409C124.407 71.9532 122.682 72.0583 120.903 71.9564C120.826 71.4519 120.922 71.0313 121.19 70.6943Z" fill="#CEB261"/>
<path opacity="0.757" fill-rule="evenodd" clip-rule="evenodd" d="M159.138 71.0103C158.403 71.6239 157.541 71.9394 156.551 71.9568C155.92 71.9552 155.345 71.8502 154.826 71.6413C156.304 71.6902 157.741 71.4797 159.138 71.0103Z" fill="#CEB261"/>
</svg>
